<?xml version="1.0" encoding="utf-8"?>
<!-- Generator: Adobe Illustrator 19.2.0, SVG Export Plug-In . SVG Version: 6.00 Build 0)  -->
<svg version="1.1" id="Calque_1" xmlns="http://www.w3.org/2000/svg" xmlns:xlink="http://www.w3.org/1999/xlink" x="0px" y="0px"
	 viewBox="0 0 35 35" style="enable-background:new 0 0 35 35;" xml:space="preserve">
<style type="text/css">
	.st0{fill:#3B3838;}
</style>
<title>Linkedin Cirlce + Linkedin</title>
<desc>Created with Sketch.</desc>
<metadata><?xpacket begin="﻿" id="W5M0MpCehiHzreSzNTczkc9d"?>
<x:xmpmeta xmlns:x="adobe:ns:meta/" x:xmptk="Adobe XMP Core 5.6-c111 79.158366, 2015/09/25-01:12:00        ">
   <rdf:RDF xmlns:rdf="http://www.w3.org/1999/02/22-rdf-syntax-ns#">
      <rdf:Description rdf:about=""
            xmlns:dc="http://purl.org/dc/elements/1.1/">
         <dc:description>
            <rdf:Alt>
               <rdf:li xml:lang="x-default">Created with Sketch.</rdf:li>
            </rdf:Alt>
         </dc:description>
         <dc:title>
            <rdf:Alt>
               <rdf:li xml:lang="x-default">Linkedin Cirlce + Linkedin</rdf:li>
            </rdf:Alt>
         </dc:title>
      </rdf:Description>
   </rdf:RDF>
</x:xmpmeta>
                                                                                                    
                                                                                                    
                                                                                                    
                                                                                                    
                                                                                                    
                                                                                                    
                                                                                                    
                                                                                                    
                                                                                                    
                                                                                                    
                                                                                                    
                                                                                                    
                                                                                                    
                                                                                                    
                                                                                                    
                                                                                                    
                                                                                                    
                                                                                                    
                                                                                                    
                                                                                                    
                           
<?xpacket end="w"?></metadata>
<g id="Page-1">
	<g id="Desktop-HD" transform="translate(-391.000000, -237.000000)">
		<g id="TOP" transform="translate(391.000000, 82.000000)">
			
				<g id="SOCIAL" transform="translate(17.500000, 191.000000) rotate(-270.000000) translate(-17.500000, -191.000000) translate(-58.500000, 173.500000)">
				<g id="Linkedin-Cirlce-_x2B_-Linkedin" transform="translate(40.000000, 0.000000)">
					<path id="Linkedin-Cirlce" class="st0" d="M17.5,33.2c-8.7,0-15.8-7.1-15.8-15.8S8.8,1.8,17.5,1.8s15.8,7.1,15.8,15.8
						C33.3,26.2,26.2,33.2,17.5,33.2L17.5,33.2z M17.5,3C9.5,3,2.9,9.5,2.9,17.5S9.4,32,17.5,32c8,0,14.6-6.5,14.6-14.6
						C32.1,9.5,25.6,3,17.5,3L17.5,3z"/>
					<path id="Linkedin" class="st0" d="M10.8,15.2h2.9v9.1h-2.9V15.2z M21.5,15.2c-1.6,0-2.7,0.9-2.9,1.5v-1.4h-3.2
						c0,0.8,0,9.1,0,9.1h3.2v-4.9c0-0.3,0-0.5,0.1-0.7c0.2-0.5,0.7-1.1,1.6-1.1c1.1,0,1.6,0.8,1.6,2.1v4.7h3.3v-5.1
						C25.2,16.5,23.5,15.2,21.5,15.2z M12.2,10.9c-1.1,0-1.8,0.7-1.8,1.6c0,0.9,0.7,1.6,1.7,1.6l0,0c1.1,0,1.8-0.7,1.8-1.6
						C13.9,11.6,13.2,10.9,12.2,10.9z"/>
				</g>
			</g>
		</g>
	</g>
</g>
</svg>
