<?xml version="1.0" encoding="utf-8"?>
<!-- Generator: Adobe Illustrator 19.2.0, SVG Export Plug-In . SVG Version: 6.00 Build 0)  -->
<svg version="1.1" id="Calque_1" xmlns="http://www.w3.org/2000/svg" xmlns:xlink="http://www.w3.org/1999/xlink" x="0px" y="0px"
	 viewBox="0 0 35 35" style="enable-background:new 0 0 35 35;" xml:space="preserve">
<style type="text/css">
	.st0{fill:#3B3838;}
</style>
<title>Behance circle + Behance</title>
<desc>Created with Sketch.</desc>
<metadata><?xpacket begin="﻿" id="W5M0MpCehiHzreSzNTczkc9d"?>
<x:xmpmeta xmlns:x="adobe:ns:meta/" x:xmptk="Adobe XMP Core 5.6-c111 79.158366, 2015/09/25-01:12:00        ">
   <rdf:RDF xmlns:rdf="http://www.w3.org/1999/02/22-rdf-syntax-ns#">
      <rdf:Description rdf:about=""
            xmlns:dc="http://purl.org/dc/elements/1.1/">
         <dc:description>
            <rdf:Alt>
               <rdf:li xml:lang="x-default">Created with Sketch.</rdf:li>
            </rdf:Alt>
         </dc:description>
         <dc:title>
            <rdf:Alt>
               <rdf:li xml:lang="x-default">Behance circle + Behance</rdf:li>
            </rdf:Alt>
         </dc:title>
      </rdf:Description>
   </rdf:RDF>
</x:xmpmeta>
                                                                                                    
                                                                                                    
                                                                                                    
                                                                                                    
                                                                                                    
                                                                                                    
                                                                                                    
                                                                                                    
                                                                                                    
                                                                                                    
                                                                                                    
                                                                                                    
                                                                                                    
                                                                                                    
                                                                                                    
                                                                                                    
                                                                                                    
                                                                                                    
                                                                                                    
                                                                                                    
                           
<?xpacket end="w"?></metadata>
<g id="Page-1">
	<g id="Desktop-HD" transform="translate(-391.000000, -197.000000)">
		<g id="TOP" transform="translate(391.000000, 82.000000)">
			
				<g id="SOCIAL" transform="translate(17.500000, 191.000000) rotate(-270.000000) translate(-17.500000, -191.000000) translate(-58.500000, 173.500000)">
				<g id="Behance-circle-_x2B_-Behance" transform="translate(0.000000, 0.000000)">
					<path id="Behance-circle" class="st0" d="M17.5,33.3c-8.7,0-15.8-7.1-15.8-15.8S8.8,1.7,17.5,1.7s15.8,7.1,15.8,15.8
						S26.2,33.3,17.5,33.3L17.5,33.3z M17.5,3C9.5,3,2.9,9.5,2.9,17.5s6.5,14.6,14.6,14.6c8,0,14.6-6.5,14.6-14.6
						C32.1,9.5,25.6,3,17.5,3L17.5,3z"/>
					<path id="Behance" class="st0" d="M16.4,17.1c0.3-0.2,0.5-0.3,0.7-0.5c0.3-0.3,0.4-0.8,0.4-1.3s-0.1-1-0.4-1.4
						c-0.5-0.6-1.2-0.9-2.3-1h-4.4v8.9h4.1c0.5,0,0.9,0,1.3-0.1s0.7-0.2,1-0.4c0.3-0.2,0.5-0.4,0.6-0.7c0.3-0.4,0.4-0.9,0.4-1.4
						s-0.1-1-0.4-1.3C17.2,17.6,16.9,17.3,16.4,17.1L16.4,17.1z M12.2,14.5h2c0.4,0,0.8,0,1.1,0.1s0.5,0.4,0.5,0.8
						c0,0.4-0.1,0.6-0.4,0.8c-0.2,0.1-0.6,0.2-1,0.2h-2.2V14.5L12.2,14.5z M15.3,20.2c-0.2,0.1-0.5,0.2-0.9,0.2h-2.2V18h2.2
						c0.4,0,0.7,0.1,0.9,0.2c0.4,0.2,0.6,0.5,0.6,1C15.9,19.6,15.7,20,15.3,20.2z M19.8,13.4h3.9v1.1h-3.9V13.4z M24.5,16.4
						c-0.3-0.4-0.7-0.8-1.2-1c-0.5-0.2-1-0.3-1.6-0.3c-1,0-1.8,0.3-2.4,0.9c-0.6,0.6-0.9,1.5-0.9,2.6c0,1.2,0.3,2.1,1,2.6
						s1.5,0.8,2.4,0.8c1.1,0,1.9-0.3,2.5-1c0.4-0.4,0.6-0.8,0.6-1.2h-1.7c-0.1,0.2-0.2,0.3-0.4,0.5c-0.2,0.2-0.6,0.3-1,0.3
						s-0.7-0.1-1-0.2c-0.4-0.3-0.7-0.7-0.7-1.4H25c0-0.6,0-1-0.1-1.3C24.9,17.3,24.7,16.8,24.5,16.4z M20.2,18
						c0.1-0.4,0.2-0.8,0.5-1s0.6-0.4,1-0.4s0.8,0.1,1,0.4c0.3,0.2,0.4,0.6,0.5,1H20.2L20.2,18z"/>
				</g>
			</g>
		</g>
	</g>
</g>
</svg>
