<?xml version="1.0" encoding="utf-8"?>
<!-- Generator: Adobe Illustrator 19.2.0, SVG Export Plug-In . SVG Version: 6.00 Build 0)  -->
<svg version="1.1" id="Calque_1" xmlns="http://www.w3.org/2000/svg" xmlns:xlink="http://www.w3.org/1999/xlink" x="0px" y="0px"
	 viewBox="0 0 35 35" style="enable-background:new 0 0 35 35;" xml:space="preserve">
<style type="text/css">
	.st0{fill:#3B3838;}
</style>
<title>insta</title>
<desc>Created with Sketch.</desc>
<metadata><?xpacket begin="﻿" id="W5M0MpCehiHzreSzNTczkc9d"?>
<x:xmpmeta xmlns:x="adobe:ns:meta/" x:xmptk="Adobe XMP Core 5.6-c111 79.158366, 2015/09/25-01:12:00        ">
   <rdf:RDF xmlns:rdf="http://www.w3.org/1999/02/22-rdf-syntax-ns#">
      <rdf:Description rdf:about=""
            xmlns:dc="http://purl.org/dc/elements/1.1/">
         <dc:description>
            <rdf:Alt>
               <rdf:li xml:lang="x-default">Created with Sketch.</rdf:li>
            </rdf:Alt>
         </dc:description>
         <dc:title>
            <rdf:Alt>
               <rdf:li xml:lang="x-default">insta</rdf:li>
            </rdf:Alt>
         </dc:title>
      </rdf:Description>
   </rdf:RDF>
</x:xmpmeta>
                                                                                                    
                                                                                                    
                                                                                                    
                                                                                                    
                                                                                                    
                                                                                                    
                                                                                                    
                                                                                                    
                                                                                                    
                                                                                                    
                                                                                                    
                                                                                                    
                                                                                                    
                                                                                                    
                                                                                                    
                                                                                                    
                                                                                                    
                                                                                                    
                                                                                                    
                                                                                                    
                           
<?xpacket end="w"?></metadata>
<g id="Page-1">
	<g id="Desktop-HD" transform="translate(-391.000000, -317.000000)">
		<g id="TOP" transform="translate(391.000000, 82.000000)">
			
				<g id="SOCIAL" transform="translate(17.500000, 191.000000) rotate(-270.000000) translate(-17.500000, -191.000000) translate(-58.500000, 173.500000)">
				<g id="insta" transform="translate(120.000000, -0.000000)">
					<path id="Instagram-Circle" class="st0" d="M17.5,33.2c-8.7,0-15.8-7.1-15.8-15.8S8.8,1.8,17.5,1.8s15.8,7.1,15.8,15.8
						C33.3,26.2,26.2,33.2,17.5,33.2L17.5,33.2z M17.5,3C9.5,3,2.9,9.5,2.9,17.5S9.4,32,17.5,32c8,0,14.6-6.5,14.6-14.6
						C32.1,9.5,25.6,3,17.5,3L17.5,3z"/>
					<path id="Instagram" class="st0" d="M23.5,10.2H12.3c-1,0-1.7,0.8-1.7,1.7V23c0,1,0.8,1.7,1.7,1.7h11.2c1,0,1.7-0.8,1.7-1.7
						V11.9C25.2,10.9,24.4,10.2,23.5,10.2L23.5,10.2z M21.1,12.5c0-0.3,0.2-0.5,0.5-0.5H23c0.3,0,0.5,0.2,0.5,0.5v1.4
						c0,0.3-0.2,0.5-0.5,0.5h-1.4c-0.3,0-0.5-0.2-0.5-0.5V12.5L21.1,12.5z M17.9,14.7c1.6,0,2.8,1.3,2.8,2.8c0,1.6-1.3,2.8-2.8,2.8
						c-1.6,0-2.8-1.3-2.8-2.8S16.4,14.7,17.9,14.7L17.9,14.7z M23.9,23c0,0.3-0.2,0.5-0.5,0.5h-11c-0.3,0-0.5-0.2-0.5-0.5v-6.9h1.9
						c-0.2,0.3-0.3,1-0.3,1.4c0,2.5,2,4.5,4.5,4.5s4.5-2,4.5-4.5c0-0.4-0.1-1-0.4-1.4h1.8V23L23.9,23z"/>
				</g>
			</g>
		</g>
	</g>
</g>
</svg>
