<?xml version="1.0" encoding="utf-8"?>
<!-- Generator: Adobe Illustrator 19.2.0, SVG Export Plug-In . SVG Version: 6.00 Build 0)  -->
<svg version="1.1" id="Calque_1" xmlns="http://www.w3.org/2000/svg" xmlns:xlink="http://www.w3.org/1999/xlink" x="0px" y="0px"
	 viewBox="0 0 35 35" style="enable-background:new 0 0 35 35;" xml:space="preserve">
<style type="text/css">
	.st0{fill:#3B3838;}
</style>
<title>Twitter Circle + Twitter</title>
<desc>Created with Sketch.</desc>
<metadata><?xpacket begin="﻿" id="W5M0MpCehiHzreSzNTczkc9d"?>
<x:xmpmeta xmlns:x="adobe:ns:meta/" x:xmptk="Adobe XMP Core 5.6-c111 79.158366, 2015/09/25-01:12:00        ">
   <rdf:RDF xmlns:rdf="http://www.w3.org/1999/02/22-rdf-syntax-ns#">
      <rdf:Description rdf:about=""
            xmlns:dc="http://purl.org/dc/elements/1.1/">
         <dc:description>
            <rdf:Alt>
               <rdf:li xml:lang="x-default">Created with Sketch.</rdf:li>
            </rdf:Alt>
         </dc:description>
         <dc:title>
            <rdf:Alt>
               <rdf:li xml:lang="x-default">Twitter Circle + Twitter</rdf:li>
            </rdf:Alt>
         </dc:title>
      </rdf:Description>
   </rdf:RDF>
</x:xmpmeta>
                                                                                                    
                                                                                                    
                                                                                                    
                                                                                                    
                                                                                                    
                                                                                                    
                                                                                                    
                                                                                                    
                                                                                                    
                                                                                                    
                                                                                                    
                                                                                                    
                                                                                                    
                                                                                                    
                                                                                                    
                                                                                                    
                                                                                                    
                                                                                                    
                                                                                                    
                                                                                                    
                           
<?xpacket end="w"?></metadata>
<g id="Page-1">
	<g id="Desktop-HD" transform="translate(-393.000000, -278.000000)">
		<g id="TOP" transform="translate(391.000000, 82.000000)">
			
				<g id="SOCIAL" transform="translate(17.500000, 191.000000) rotate(-270.000000) translate(-17.500000, -191.000000) translate(-58.500000, 173.500000)">
				<g id="Twitter-Circle-_x2B_-Twitter" transform="translate(80.800000, 1.000000)">
					<path id="Twitter-Circle" class="st0" d="M17.7,30.3C9,30.3,1.9,23.2,1.9,14.5S9-1.3,17.7-1.3s15.8,7.1,15.8,15.8
						S26.4,30.3,17.7,30.3L17.7,30.3z M17.7,0C9.7,0,3.1,6.5,3.1,14.5s6.5,14.6,14.6,14.6c8,0,14.6-6.5,14.6-14.6
						C32.3,6.5,25.8,0,17.7,0L17.7,0z"/>
					<path id="Twitter" class="st0" d="M24.6,8.4c-0.6,0.4-1.3,0.6-2,0.8c-0.6-0.6-1.4-1-2.2-1c-1.7,0-3.1,1.4-3.1,3.2
						c0,0.2,0,0.5,0.1,0.7c-2.6-0.1-4.8-1.4-6.3-3.3c-0.3,0.5-0.4,1-0.4,1.6c0,1.1,0.5,2.1,1.4,2.6c-0.5,0-1-0.2-1.4-0.4l0,0
						c0,1.5,1.1,2.8,2.5,3.1c-0.3,0.1-0.5,0.1-0.8,0.1c-0.2,0-0.4,0-0.6-0.1c0.4,1.3,1.5,2.2,2.9,2.2c-1.1,0.8-2.4,1.3-3.8,1.3
						c-0.2,0-0.5,0-0.7,0c1.4,0.9,3,1.4,4.7,1.4c5.7,0,8.7-4.8,8.7-9c0-0.1,0-0.3,0-0.4c0.6-0.4,1.1-1,1.5-1.6
						c-0.6,0.3-1.1,0.4-1.8,0.5C23.9,9.8,24.4,9.2,24.6,8.4"/>
				</g>
			</g>
		</g>
	</g>
</g>
</svg>
