<?xml version="1.0" standalone="no"?>
<!DOCTYPE svg PUBLIC "-//W3C//DTD SVG 1.1//EN" "http://www.w3.org/Graphics/SVG/1.1/DTD/svg11.dtd" >
<svg xmlns="http://www.w3.org/2000/svg">
<metadata>
Created by FontPrep 20130207 at Thu Sep  1 12:26:40 2016
 By Coline
HTF Gotham  Copr. 2003 The Hoefler Type Foundry, Inc. Info: www.typography.com
</metadata>
<defs>
<font id="db7a69c6bf801b8515e646bb554f0290" horiz-adv-x='1024' >
  <font-face 
    font-family="GothamUltra"
    font-weight="900"
    font-stretch="normal"
    units-per-em="2048"
    panose-1="2 0 6 3 4 0 0 2 0 4"
    ascent="1638"
    descent="-410"
    x-height="1118"
    cap-height="1434"
    bbox="-154 -354 2712 1909"
    underline-thickness="40"
    underline-position="-231"
    unicode-range="U+0020-FB02"
  />
<missing-glyph 
 />
    <glyph glyph-name="fi" unicode="fi" horiz-adv-x="1484" 
d="M938 1495h481v-297h-481v297zM719 1204q-109 0 -109 -90v-8h258v-346h-247v-760h-465v760h-131v358h131q13 296 162 343.5t299 47.5t251 -30v-291q-70 16 -149 16zM946 1118h465v-1118h-465v1118z" />
    <glyph glyph-name="fl" unicode="fl" horiz-adv-x="1484" 
d="M719 1204q-109 0 -109 -90v-8h258v-346h-247v-760h-465v760h-131v358h131q13 296 162 343.5t299 47.5t251 -30v-291q-70 16 -149 16zM946 1495h465v-1495h-465v1495z" />
    <glyph glyph-name=".notdef" 
 />
    <glyph glyph-name=".null" horiz-adv-x="0" 
 />
    <glyph glyph-name="nonmarkingreturn" horiz-adv-x="520" 
 />
    <glyph glyph-name="space" unicode=" " horiz-adv-x="520" 
 />
    <glyph glyph-name="exclam" unicode="!" horiz-adv-x="663" 
d="M72 1434h520v-308l-143 -680h-234l-143 680v308zM94 369h475v-369h-475v369z" />
    <glyph glyph-name="quotedbl" unicode="&#x22;" horiz-adv-x="1134" 
d="M1135 1434v-11l-295 -807h-250l55 818h490zM567 1434v-11l-295 -807h-249l55 818h489z" />
    <glyph glyph-name="numbersign" unicode="#" horiz-adv-x="1456" 
d="M49 246v395h232l26 160h-194v395h262l41 238h321l-41 -238h224l41 238h321l-41 -238h166v-395h-233l-27 -160h196v-395h-264l-43 -246h-321l43 246h-223l-43 -246h-322l43 246h-164zM836 627l32 190h-252l-32 -190h252z" />
    <glyph glyph-name="dollar" unicode="$" horiz-adv-x="1404" 
d="M94 973v4q0 198 141 322.5t408 136.5v116h213v-122q261 -26 481 -166l-196 -312q-125 89 -297 125v-168q272 -53 404 -152.5t132 -299.5v-4q0 -298 -205.5 -371.5t-326.5 -81.5v-201h-213v203q-358 29 -623 211l209 309q214 -138 426 -170v170q-288 58 -420.5 159
t-132.5 292zM514 1020v-4q0 -33 28.5 -52.5t108.5 -33.5v166q-137 -4 -137 -76zM971 416v4q0 33 -26.5 51t-104.5 33v-166q131 7 131 78z" />
    <glyph glyph-name="percent" unicode="%" horiz-adv-x="1918" 
d="M51 1051v4q0 167 106.5 284t285 117t285 -118t106.5 -283v-4q0 -165 -109.5 -283.5t-282 -118.5t-282 118.5t-109.5 283.5zM1386 1434h310l-1164 -1434h-309zM1085 379v4q0 165 106.5 283t285 118t285 -118t106.5 -283v-4q0 -164 -109.5 -283t-282 -119t-282 119
t-109.5 283zM442 909q41 0 74 38t33 104v4q0 66 -32 103.5t-76 37.5t-74.5 -38t-30.5 -103v-4q0 -66 32.5 -104t73.5 -38zM1477 238q41 0 73.5 37.5t32.5 103.5v4q0 66 -31.5 103.5t-75.5 37.5t-75 -37.5t-31 -103.5v-4q0 -66 33 -103.5t74 -37.5z" />
    <glyph glyph-name="ampersand" unicode="&#x26;" horiz-adv-x="1433" 
d="M991 102q-190 -129 -428 -129t-391.5 109t-153.5 305v4q0 273 304 406q-89 133 -89 266v4q0 166 128.5 281.5t333.5 115.5t327.5 -103.5t122.5 -268.5v-5q0 -123 -69.5 -216t-188.5 -154l129 -125q46 62 131 211l293 -137q-95 -173 -191 -301l176 -170l-305 -224z
M791 1067v4q0 45 -23.5 70.5t-63.5 25.5t-65 -29.5t-25 -78.5v-4q0 -65 64 -150q113 59 113 162zM494 418v-4q0 -53 37 -84t95 -31t138 41l-199 203q-71 -53 -71 -125z" />
    <glyph glyph-name="quotesingle" unicode="'" horiz-adv-x="577" 
d="M578 1434v-11l-295 -807h-260l55 818h500z" />
    <glyph glyph-name="parenleft" unicode="(" horiz-adv-x="911" 
d="M61 588q0 310 156.5 514t470.5 362l184 -274q-188 -129 -274 -271.5t-86 -331t86 -330.5t274 -271l-184 -275q-315 161 -471 364t-156 513z" />
    <glyph glyph-name="parenright" unicode=")" horiz-adv-x="911" 
d="M399 587.5q0 188.5 -86 331t-274 271.5l184 274q316 -161 471.5 -363.5t155.5 -583.5t-240.5 -556.5t-386.5 -249.5l-184 275q188 129 274 271t86 330.5z" />
    <glyph glyph-name="asterisk" unicode="*" horiz-adv-x="860" 
d="M369 922l-222 -209l-137 231l293 88l-293 88l137 232l222 -209l-70 295h262l-69 -295l221 209l137 -232l-293 -88l293 -88l-137 -231l-221 209l69 -295h-262z" />
    <glyph glyph-name="plus" unicode="+" horiz-adv-x="1310" 
d="M444 518h-319v406h319v336h422v-336h320v-406h-320v-336h-422v336z" />
    <glyph glyph-name="comma" unicode="," horiz-adv-x="577" 
d="M238 8h-187v471h475v-375q0 -343 -180 -393.5t-280 -54.5l-37 170q209 25 209 182z" />
    <glyph glyph-name="hyphen" unicode="-" horiz-adv-x="835" 
d="M61 836h713v-381h-713v381z" />
    <glyph glyph-name="hyphen" unicode="&#xad;" horiz-adv-x="835" 
d="M61 836h713v-381h-713v381z" />
    <glyph glyph-name="period" unicode="." horiz-adv-x="577" 
d="M51 471h475v-471h-475v471z" />
    <glyph glyph-name="slash" unicode="/" horiz-adv-x="1105" 
d="M809 1634h367l-908 -1896h-366z" />
    <glyph glyph-name="zero" unicode="0" horiz-adv-x="1495" 
d="M744 -31q-311 0 -499 216.5t-188 527.5v4q0 147 47.5 283.5t190 300t454.5 163.5t500.5 -215t188.5 -528v-4q0 -147 -47.5 -283.5t-136.5 -239t-218 -164t-292 -61.5zM750 385q98 0 155.5 90t57.5 238v4q0 226 -84 279t-134 53q-98 0 -155.5 -90.5t-57.5 -237.5v-4
q0 -228 84.5 -280t133.5 -52z" />
    <glyph glyph-name="one" unicode="1" horiz-adv-x="864" 
d="M774 1444v-1444h-471v1024l-233 -51l-86 354l428 117h362z" />
    <glyph glyph-name="two" unicode="2" horiz-adv-x="1280" 
d="M754 951q0 44 -34 74t-95.5 30t-124 -41t-152.5 -137l-315 268q131 163 275.5 239t374.5 76t388 -132t158 -337v-4q0 -216 -112.5 -311.5t-176.5 -136.5l-256 -164h559v-375h-1208v348l594 426q125 86 125 177z" />
    <glyph glyph-name="three" unicode="3" horiz-adv-x="1271" 
d="M1245 455v-4q0 -224 -170 -353t-406 -129q-235 0 -394.5 67.5t-278.5 190.5l285 293q163 -155 337 -155q80 0 122 31.5t42 82.5v4q0 53 -46 84t-142 31h-203l-63 213l315 250h-532v373h1101v-330l-321 -242q354 -94 354 -407z" />
    <glyph glyph-name="four" unicode="4" horiz-adv-x="1411" 
d="M760 248h-690l-78 336l700 860h533v-858h172v-338h-172v-248h-465v248zM760 580v381l-305 -381h305z" />
    <glyph glyph-name="five" unicode="5" horiz-adv-x="1290" 
d="M774 946q192 0 335.5 -120t143.5 -332v-5q0 -242 -177.5 -381t-459.5 -139q-209 0 -357 63.5t-267 172.5l264 307q194 -156 354 -156q86 0 133.5 39t47.5 99v4q0 63 -46.5 100t-116.5 37t-121.5 -24.5t-103.5 -65.5l-288 143l41 746h1034v-379h-678l-10 -187
q127 78 272 78z" />
    <glyph glyph-name="six" unicode="6" horiz-adv-x="1355" 
d="M528 815q146 127 310 127q189 0 322.5 -118.5t133.5 -317.5v-4q0 -249 -172.5 -391t-421.5 -142q-164 0 -403.5 101.5t-239.5 601.5v4q0 351 181 569.5t522 218.5q283 0 506 -155l-207 -316q-144 103 -270 103t-186 -76t-75 -205zM682 313q72 0 113 47.5t41 112.5v4
q0 66 -43 113t-115 47t-113 -46t-41 -112v-4q0 -66 43 -114t115 -48z" />
    <glyph glyph-name="seven" unicode="7" horiz-adv-x="1247" 
d="M49 1038v396h1176v-361l-623 -1073h-520l620 1038h-653z" />
    <glyph glyph-name="eight" unicode="8" horiz-adv-x="1290" 
d="M1270 399v-4q0 -190 -175 -306t-451.5 -116t-450 118t-173.5 304v4q0 240 259 344q-145 71 -177 161.5t-32 150.5v4q0 175 159 288t415.5 113t416.5 -112.5t160 -288.5v-4q0 -205 -209 -312q258 -108 258 -344zM645.5 856q65.5 0 107.5 40t42 99v4q0 53 -41 94.5
t-108.5 41.5t-108.5 -41t-41 -95v-4q0 -59 42 -99t107.5 -40zM645 305q84 0 125 45t41 99v4q0 59 -45 99t-121 40t-121 -40t-45 -99v-4q0 -53 41 -98.5t125 -45.5z" />
    <glyph glyph-name="nine" unicode="9" horiz-adv-x="1355" 
d="M829 610q-133 -133 -318 -133t-317.5 122.5t-132.5 322.5v4q0 246 168 392t428 146q168 0 404.5 -102.5t236.5 -595.5v-4q0 -361 -184 -577t-498 -216t-546 168l206 309q143 -109 302 -108q226 0 251 272zM678 784q72 0 114 47.5t42 112.5v4q0 72 -44.5 122t-116 50
t-113.5 -49t-42 -121v-4q0 -70 44 -116t116 -46z" />
    <glyph glyph-name="colon" unicode=":" horiz-adv-x="598" 
d="M61 1118h476v-471h-476v471zM61 471h476v-471h-476v471z" />
    <glyph glyph-name="semicolon" unicode=";" horiz-adv-x="598" 
d="M61 1118h476v-471h-476v471zM248 0h-187v471h476v-375q0 -343 -180.5 -393.5t-280.5 -54.5l-37 170q209 25 209 182z" />
    <glyph glyph-name="semicolon" unicode="&#x37e;" horiz-adv-x="598" 
d="M61 1118h476v-471h-476v471zM248 0h-187v471h476v-375q0 -343 -180.5 -393.5t-280.5 -54.5l-37 170q209 25 209 182z" />
    <glyph glyph-name="less" unicode="&#x3c;" horiz-adv-x="1327" 
d="M127 500v438l1044 377v-432l-647 -164l647 -164v-432z" />
    <glyph glyph-name="equal" unicode="=" horiz-adv-x="1306" 
d="M133 1206h1041v-401h-1041v401zM133 637h1041v-401h-1041v401z" />
    <glyph glyph-name="greater" unicode="&#x3e;" horiz-adv-x="1327" 
d="M156 555l647 164l-647 164v432l1044 -377v-438l-1044 -377v432z" />
    <glyph glyph-name="question" unicode="?" horiz-adv-x="1099" 
d="M559 1458q232 0 379 -119t147 -315v-4q0 -261 -153.5 -336.5t-241.5 -99.5l-24 -138h-285l-57 355l24 24q285 35 285 142v2q0 35 -31 57.5t-123 22.5t-258 -129l-221 331q231 207 559 207zM279 369h475v-369h-475v369z" />
    <glyph glyph-name="at" unicode="@" horiz-adv-x="1945" 
d="M991 -332q-201 0 -368.5 69.5t-288.5 190.5t-188.5 284t-67.5 350t68.5 352t190.5 287t290.5 192.5t364.5 70.5t355.5 -63.5t275.5 -171t180.5 -248.5t64.5 -295t-42 -263.5t-107.5 -181t-149 -106.5t-191.5 -35t-184 53.5t-111 133.5q-129 -176 -296 -176t-272 116.5
t-105 326.5t132.5 370.5t315.5 160.5q94 0 160.5 -48t105.5 -113l27 139l391 -59l-92 -506q-10 -72 -10 -117t29.5 -78t84.5 -33q94 0 161 103.5t67 276.5t-56.5 301t-160 223.5t-249 151.5t-325.5 56t-333.5 -63.5t-263 -174t-170 -260t-60.5 -321.5t59.5 -321.5t169 -258
t262 -171t321.5 -62.5t284.5 35t232.5 102l41 -65q-255 -154 -543 -154zM809 576q1 -126 121 -127q56 0 97.5 52.5t41.5 118.5q1 128 -119 128q-56 0 -98.5 -53t-42.5 -119z" />
    <glyph glyph-name="A" unicode="A" horiz-adv-x="1638" 
d="M582 1444h475l604 -1444h-520l-76 193h-502l-74 -193h-512zM946 532l-131 349l-131 -349h262z" />
    <glyph glyph-name="B" unicode="B" horiz-adv-x="1449" 
d="M1380 1077q0 -237 -256 -327q139 -41 221 -121t82 -228v-4q0 -178 -142.5 -287.5t-407.5 -109.5h-795v1434h803q372 0 433.5 -139.5t61.5 -213.5v-4zM758 870q152 0 151 99v4q0 98 -153 98h-207v-201h209zM788 362q78 0 118 29t40 76v4q0 47 -39 75.5t-116 28.5h-242
v-213h239z" />
    <glyph glyph-name="C" unicode="C" horiz-adv-x="1480" 
d="M1065 860q-91 174 -241 174q-139 0 -213 -91t-74 -222v-4q0 -143 75 -230.5t185 -87.5t171.5 50.5t106.5 130.5l395 -224q-218 -387 -677 -387q-306 0 -464.5 151.5t-219 289t-60.5 303.5v4q0 160 58.5 297t162 237.5t242 156.5t278.5 56q465 0 670 -372z" />
    <glyph glyph-name="D" unicode="D" horiz-adv-x="1533" 
d="M82 1434h549q417 0 635.5 -188.5t218.5 -516.5v-4q0 -330 -224 -527.5t-647 -197.5h-532v1434zM641 418q166 0 263 70.5t97 226.5v4q0 156 -97 226.5t-263 70.5h-80v-598h80z" />
    <glyph glyph-name="E" unicode="E" horiz-adv-x="1361" 
d="M82 1434h1223v-394h-752v-145h700v-346h-700v-156h762v-393h-1233v1434z" />
    <glyph glyph-name="F" unicode="F" horiz-adv-x="1312" 
d="M82 1434h1200v-410h-721v-182h670v-373h-670v-469h-479v1434z" />
    <glyph glyph-name="G" unicode="G" horiz-adv-x="1544" 
d="M49 713v4q0 160 59.5 297t225.5 293.5t513 156.5t593 -217l-269 -323q-153 125 -304 125t-243 -96t-92 -242v-4q0 -151 95.5 -246.5t246.5 -95.5q108 0 164 32v144h-245v307h694v-664q-262 -215 -618 -215t-525.5 151.5t-232 289t-62.5 303.5z" />
    <glyph glyph-name="H" unicode="H" horiz-adv-x="1560" 
d="M82 1434h479v-506h438v506h480v-1434h-480v514h-438v-514h-479v1434z" />
    <glyph glyph-name="I" unicode="I" horiz-adv-x="651" 
d="M86 1434h479v-1434h-479v1434z" />
    <glyph glyph-name="J" unicode="J" horiz-adv-x="1155" 
d="M538 -29q-209 0 -339 71.5t-211 195.5l313 264q41 -59 84 -92t102.5 -33t96.5 45t37 121v891h466v-883q0 -411 -216.5 -495.5t-332.5 -84.5z" />
    <glyph glyph-name="K" unicode="K" horiz-adv-x="1495" 
d="M82 1434h479v-537l408 537h557l-500 -623l510 -811h-571l-281 455l-123 -150v-305h-479v1434z" />
    <glyph glyph-name="L" unicode="L" horiz-adv-x="1257" 
d="M82 1434h479v-1024h674v-410h-1153v1434z" />
    <glyph glyph-name="M" unicode="M" horiz-adv-x="1777" 
d="M82 1434h500l307 -504l307 504h500v-1434h-477v711l-330 -510h-8l-330 510v-711h-469v1434z" />
    <glyph glyph-name="N" unicode="N" horiz-adv-x="1597" 
d="M82 1434h448l510 -633v633h476v-1434h-426l-533 662v-662h-475v1434z" />
    <glyph glyph-name="O" unicode="O" horiz-adv-x="1662" 
d="M829.5 -31q-165.5 0 -308 57.5t-248 158t-165 236.5t-59.5 292v4q0 156 60.5 292t166 237.5t249 159.5t309 58t308 -57t248 -157.5t165 -236.5t59.5 -292v-4q0 -156 -60.5 -292t-166 -237.5t-249 -160t-309 -58.5zM1130 713v4q0 130 -82.5 226.5t-216.5 96.5
q-133 0 -216 -93.5t-83 -225.5v-4q0 -130 83 -227t218 -97q133 0 215 94t82 226z" />
    <glyph glyph-name="P" unicode="P" horiz-adv-x="1388" 
d="M82 1434h645q294 0 467.5 -131t173.5 -379v-4q0 -254 -176.5 -392.5t-474.5 -138.5h-156v-389h-479v1434zM690 731q92 0 148.5 40t56.5 118v4q0 78 -53.5 118t-149.5 40h-131v-320h129z" />
    <glyph glyph-name="Q" unicode="Q" horiz-adv-x="1662" 
d="M49 713v4q0 156 60.5 292t166 237.5t249 159.5t309 58t308 -57t248 -157.5t165 -236.5t59.5 -292v-4q0 -223 -127 -412l147 -125l-200 -223l-158 141q-199 -129 -447 -129q-166 0 -308 57.5t-247.5 158t-165 236.5t-59.5 292zM824 379q60 0 110 16l-164 140l201 225
l153 -137q10 45 11 84v4q0 133 -85.5 231t-218.5 98t-216 -97.5t-83 -229.5v-4q0 -135 59.5 -205t116 -97.5t116.5 -27.5z" />
    <glyph glyph-name="R" unicode="R" horiz-adv-x="1464" 
d="M1430 926q0 -301 -283 -439l334 -487h-547l-270 410h-103v-410h-479v1434h700q354 0 516 -164q132 -132 132 -340v-4zM952 895q0 137 -182 137h-209v-280h207q86 0 135 36.5t49 102.5v4z" />
    <glyph glyph-name="S" unicode="S" horiz-adv-x="1359" 
d="M528 1022v-4q0 -30 40 -51t164 -44q288 -52 443.5 -155.5t155.5 -304.5v-4q0 -224 -171.5 -355t-461.5 -131q-461 0 -735 242l256 305q218 -168 502 -168q123 0 123 62v4q0 31 -42 51t-160 44q-288 59 -444.5 156t-156.5 304v4q0 210 159.5 346.5t448.5 136.5
q397 0 647 -196l-233 -324q-195 141 -433 141q-102 0 -102 -59z" />
    <glyph glyph-name="T" unicode="T" horiz-adv-x="1376" 
d="M449 1028h-422v406h1323v-406h-422v-1028h-479v1028z" />
    <glyph glyph-name="U" unicode="U" horiz-adv-x="1556" 
d="M70 643v791h487v-785q0 -133 62.5 -193.5t159.5 -60.5t158.5 56.5t61.5 187.5v795h488v-781q0 -351 -187.5 -516.5t-524 -165.5t-521 164.5t-184.5 507.5z" />
    <glyph glyph-name="V" unicode="V" horiz-adv-x="1576" 
d="M-23 1434h537l279 -805l278 805h528l-581 -1444h-459z" />
    <glyph glyph-name="W" unicode="W" horiz-adv-x="2277" 
d="M0 1434h502l203 -689l231 693h414l231 -693l203 689h493l-469 -1444h-417l-252 712l-252 -712h-418z" />
    <glyph glyph-name="X" unicode="X" horiz-adv-x="1499" 
d="M467 729l-465 705h545l207 -342l209 342h534l-465 -701l486 -733h-545l-228 373l-229 -373h-534z" />
    <glyph glyph-name="Y" unicode="Y" horiz-adv-x="1495" 
d="M987 0h-479v508l-541 926h537l246 -471l247 471h531l-541 -920v-514z" />
    <glyph glyph-name="Z" unicode="Z" horiz-adv-x="1409" 
d="M61 1040v394h1313v-336l-649 -705h649v-393h-1337v336l649 704h-625z" />
    <glyph glyph-name="bracketleft" unicode="[" horiz-adv-x="921" 
d="M102 1434h754v-285h-358v-1131h358v-284h-754v1700z" />
    <glyph glyph-name="backslash" unicode="\" horiz-adv-x="1105" 
d="M-70 1634h367l907 -1896h-366z" />
    <glyph glyph-name="bracketright" unicode="]" horiz-adv-x="921" 
d="M66 18h358v1131h-358v285h753v-1700h-753v284z" />
    <glyph glyph-name="asciicircum" unicode="^" 
d="M356 1430h312l286 -420h-319l-125 157l-125 -157h-315z" />
    <glyph glyph-name="underscore" unicode="_" horiz-adv-x="1228" 
d="M-4 -90h1237v-238h-1237v238z" />
    <glyph glyph-name="grave" unicode="`" 
d="M137 1464l453 117l196 -393h-311z" />
    <glyph glyph-name="a" unicode="a" horiz-adv-x="1241" 
d="M27 317v5q0 168 114.5 258t311.5 90q101 0 173 -16.5t91 -24.5v18q0 162 -207 162q-148 0 -309 -64l-82 310q217 82 471 82q327 0 473 -146q63 -63 90 -147t27 -207v-637h-465v113q-131 -140 -309 -140t-278.5 90.5t-100.5 253.5zM471 354v-4q0 -49 31 -78.5t84 -29.5
t94 46t41 126v47q-45 18 -111 18t-102.5 -35.5t-36.5 -89.5z" />
    <glyph glyph-name="b" unicode="b" horiz-adv-x="1384" 
d="M535 0h-465v1495h465v-514q75 80 147.5 122t178.5 42q211 0 349 -162.5t138 -415.5v-4q0 -258 -137 -424t-355 -166q-182 0 -321 154v-127zM897 557v4q0 86 -53 143.5t-133 57.5t-133.5 -57.5t-53.5 -143.5v-4q0 -82 53 -141.5t133 -59.5q81 0 134 57.5t53 143.5z" />
    <glyph glyph-name="c" unicode="c" horiz-adv-x="1161" 
d="M35 553v4q0 241 170.5 413.5t439.5 172.5q186 0 313 -86t193 -223l-334 -189q-62 113 -164 113q-74 0 -123 -56.5t-49 -140.5v-4q0 -88 48.5 -144.5t113.5 -56.5t104 30t74 83l338 -193q-164 -305 -536 -305q-127 0 -235.5 47.5t-230.5 172t-122 362.5z" />
    <glyph glyph-name="d" unicode="d" horiz-adv-x="1384" 
d="M498 -27q-82 0 -169 42t-189.5 162.5t-102.5 373.5v4q0 258 137 424t340 166q127 0 205 -47t131 -107v504h465v-1495h-465v137q-75 -80 -122.5 -107.5t-97.5 -42t-132 -14.5zM674 356q80 0 133 57.5t53 143.5v4q0 82 -53 141.5t-133 59.5t-133.5 -57.5t-53.5 -143.5v-4
q0 -86 53.5 -143.5t133.5 -57.5z" />
    <glyph glyph-name="e" unicode="e" horiz-adv-x="1224" 
d="M672 -27q-297 0 -467 159.5t-170 420.5v4q0 250 161.5 419t431.5 169t417 -173t147 -444v-30q0 -29 -2 -47h-719q51 -150 211 -150q118 0 227 115l250 -199q-84 -109 -205.5 -176.5t-281.5 -67.5zM614 823q-60 0 -99.5 -45t-49.5 -123h303q-8 80 -51 124t-103 44z" />
    <glyph glyph-name="f" unicode="f" horiz-adv-x="872" 
d="M719 1204q-109 0 -109 -90v-8h258v-346h-247v-760h-465v760h-131v358h131q13 296 162 343.5t299 47.5t251 -30v-291q-70 16 -149 16z" />
    <glyph glyph-name="g" unicode="g" horiz-adv-x="1384" 
d="M37 621v4q0 230 136.5 375t334.5 145q123 0 201.5 -41t140.5 -105v119h465v-835q0 -156 -34 -264.5t-111 -185.5q-165 -165 -505 -165t-620 139l143 281q203 -106 404 -106q131 0 198.5 64.5t67.5 180.5v33q-143 -154 -323 -154q-218 0 -358 142t-140 373zM674 446
q86 0 136 51.5t50 125.5v4q0 72 -50 123t-136 51t-136.5 -52.5t-50.5 -125.5v-5q0 -72 50.5 -122t136.5 -50z" />
    <glyph glyph-name="h" unicode="h" horiz-adv-x="1320" 
d="M70 1495h465v-526q53 70 138 123t204 53q178 0 280.5 -108.5t102.5 -299.5v-737h-465v588q0 72 -37 111.5t-90.5 39.5t-93 -40t-39.5 -111v-588h-465v1495z" />
    <glyph glyph-name="i" unicode="i" horiz-adv-x="612" 
d="M66 1495h481v-297h-481v297zM74 1118h465v-1118h-465v1118z" />
    <glyph glyph-name="j" unicode="j" horiz-adv-x="618" 
d="M66 1495h481v-297h-481v297zM124 -334q-80 0 -206 17v272h35q66 0 93.5 28.5t27.5 104.5v1030h465v-1038q0 -334 -167.5 -374t-247.5 -40z" />
    <glyph glyph-name="k" unicode="k" horiz-adv-x="1257" 
d="M70 1495h465v-721l239 344h506l-350 -454l356 -664h-498l-161 307l-92 -119v-188h-465v1495z" />
    <glyph glyph-name="l" unicode="l" horiz-adv-x="612" 
d="M74 1495h465v-1495h-465v1495z" />
    <glyph glyph-name="m" unicode="m" horiz-adv-x="2029" 
d="M872 1145q234 0 330 -184q72 80 161 132t218 52q180 0 283.5 -108.5t103.5 -299.5v-737h-465v592q0 72 -35.5 109.5t-87 37.5t-90.5 -37.5t-39 -109.5v-592h-465v592q0 72 -35.5 109.5t-87 37.5t-90 -37.5t-38.5 -109.5v-592h-465v1118h465v-149q53 70 137 123t200 53z
" />
    <glyph glyph-name="n" unicode="n" horiz-adv-x="1320" 
d="M865 1145q190 0 292.5 -108.5t102.5 -299.5v-737h-465v588q0 72 -37 111.5t-90.5 39.5t-93 -40t-39.5 -111v-588h-465v1118h465v-155q140 182 330 182z" />
    <glyph glyph-name="o" unicode="o" horiz-adv-x="1327" 
d="M594.5 -27q-204.5 0 -382 170t-177.5 412v4q0 241 179 413.5t452 172.5t449.5 -170.5t176.5 -411.5v-4q0 -119 -47 -225.5t-130 -186t-199.5 -127t-321 -47.5zM665.5 360q77.5 0 129 57.5t51.5 137.5v4q0 84 -53.5 141.5t-131 57.5t-129 -57.5t-51.5 -137.5v-4
q0 -84 53.5 -141.5t131 -57.5z" />
    <glyph glyph-name="p" unicode="p" horiz-adv-x="1384" 
d="M70 1118h465v-137q75 80 147.5 122t178.5 42q211 0 349 -162.5t138 -415.5v-4q0 -258 -137 -424t-341 -166q-127 0 -204.5 47.5t-130.5 106.5v-455h-465v1446zM897 557v4q0 86 -53 143.5t-133 57.5t-133.5 -57.5t-53.5 -143.5v-4q0 -82 53 -141.5t133 -59.5
q81 0 134 57.5t53 143.5z" />
    <glyph glyph-name="q" unicode="q" horiz-adv-x="1384" 
d="M499 -27q-83 0 -170 42t-189.5 162.5t-102.5 373.5v4q0 258 137 424t340 166q127 0 205 -47t131 -107v127h465v-1446h-465v465q-75 -80 -122.5 -107.5t-96.5 -42t-132 -14.5zM674 356q80 0 133 57.5t53 143.5v4q0 82 -53 141.5t-133 59.5t-133.5 -57.5t-53.5 -143.5v-4
q0 -86 53.5 -143.5t133.5 -57.5z" />
    <glyph glyph-name="r" unicode="r" horiz-adv-x="894" 
d="M836 641q-301 0 -301 -356v-285h-465v1118h465v-225q47 113 128.5 180.5t221.5 61.5v-494h-49z" />
    <glyph glyph-name="s" unicode="s" horiz-adv-x="1075" 
d="M561 274q68 0 68 37v4q0 16 -24.5 29.5t-119.5 38.5q-231 61 -338.5 136.5t-107.5 238.5v4q0 182 133.5 282.5t353.5 100.5q286 0 502 -129l-147 -277q-90 49 -187.5 77t-166.5 28t-68 -35v-4q0 -16 26.5 -30.5t121.5 -38.5q229 -58 335.5 -136.5t106.5 -237.5v-4
q0 -184 -128.5 -284.5t-357.5 -100.5q-328 0 -573 162l157 264q202 -125 414 -125z" />
    <glyph glyph-name="t" unicode="t" horiz-adv-x="913" 
d="M156 375v385h-131v358h131v281h465v-281h258v-358h-258v-283q0 -63 28.5 -89t88.5 -26t136 35v-358q-121 -64 -296 -64q-422 0 -422 400z" />
    <glyph glyph-name="u" unicode="u" horiz-adv-x="1320" 
d="M444 -27q-178 0 -280.5 108.5t-102.5 299.5v737h465v-588q0 -72 37 -111.5t90.5 -39.5t93 40t39.5 111v588h465v-1118h-465v150q-53 -70 -138 -123.5t-204 -53.5z" />
    <glyph glyph-name="v" unicode="v" horiz-adv-x="1331" 
d="M0 1118h487l181 -561l182 561h481l-452 -1126h-426z" />
    <glyph glyph-name="w" unicode="w" horiz-adv-x="1763" 
d="M2 1118h444l115 -450l135 454h371l137 -458l119 454h438l-342 -1126h-389l-149 479l-154 -479h-387z" />
    <glyph glyph-name="x" unicode="x" horiz-adv-x="1216" 
d="M346 559l-360 559h501l123 -225l125 225h494l-359 -559l361 -559h-502l-125 227l-125 -227h-493z" />
    <glyph glyph-name="y" unicode="y" horiz-adv-x="1335" 
d="M946 78q-84 -227 -191.5 -319.5t-312.5 -92.5t-413 117l135 317q131 -73 190 -73q58 0 90 16l-438 1075h481l195 -590l178 590h473z" />
    <glyph glyph-name="z" unicode="z" horiz-adv-x="1153" 
d="M49 754v364h1079v-291l-456 -462h456v-365h-1097v291l454 463h-436z" />
    <glyph glyph-name="braceleft" unicode="{" horiz-adv-x="1003" 
d="M51 449h-12v278h12q131 0 177 29.5t64.5 66.5t18.5 95l-6 161q0 184 136.5 272.5t461.5 112.5l66 -247q-157 -26 -208.5 -70t-51.5 -148l6 -137q0 -218 -244 -274q244 -58 244 -275l-6 -137q0 -104 50.5 -147.5t209.5 -69.5l-66 -248q-477 34 -537.5 164.5t-60.5 220.5
l6 162q0 156 -100 173.5t-160 17.5z" />
    <glyph glyph-name="bar" unicode="|" horiz-adv-x="737" 
d="M195 1634h348v-1896h-348v1896z" />
    <glyph glyph-name="braceright" unicode="}" horiz-adv-x="1003" 
d="M952 727h13v-278h-13q-121 0 -190.5 -39t-69.5 -152l6 -162q0 -182 -136 -270.5t-462 -114.5l-65 248q158 27 209 70.5t51 146.5l-6 137q0 216 243 275q-243 58 -243 274l6 137q0 103 -50 146t-210 72l65 247q324 -23 461 -112.5t137 -272.5l-6 -161q0 -158 100.5 -174.5
t159.5 -16.5z" />
    <glyph glyph-name="asciitilde" unicode="~" 
d="M324 819q73 0 189.5 -40t148.5 -40t49.5 21.5t36.5 68.5l206 -51q-31 -176 -90 -250.5t-164 -74.5q-73 0 -188 39.5t-148 39.5q-34 0 -51.5 -21.5t-36.5 -68.5l-206 52q31 176 90 250.5t164 74.5z" />
    <glyph glyph-name="nonbreakingspace" unicode="&#xa0;" horiz-adv-x="520" 
 />
    <glyph glyph-name="exclamdown" unicode="&#xa1;" horiz-adv-x="663" 
d="M94 1434h475v-369h-475v369zM592 0h-520v307l143 680h234l143 -680v-307z" />
    <glyph glyph-name="cent" unicode="&#xa2;" horiz-adv-x="1165" 
d="M35 725v4q0 244 156 404t417 174l23 139h260l-29 -174q111 -39 187.5 -107.5t111.5 -142.5l-293 -164q-39 61 -92 88l-74 -467q105 21 166 121l297 -168q-147 -266 -479 -282l-27 -162h-260l31 196q-178 61 -286.5 207.5t-108.5 333.5zM412 733v-4q0 -154 94 -217l76 465
q-80 -18 -125 -88t-45 -156z" />
    <glyph glyph-name="sterling" unicode="&#xa3;" horiz-adv-x="1296" 
d="M840 1044q-76 0 -118 -45t-42 -122v-48h418v-299h-418v-174h577v-356h-1200v266l152 66v198h-152v299h152v41q0 283 155 438q155 154 438 154t480 -178l-242 -336q-92 96 -200 96z" />
    <glyph glyph-name="currency" unicode="&#xa4;" horiz-adv-x="1318" 
d="M53 469v217h125q-2 6 -2 9v27q0 23 2 34h-125v217h152q49 213 216 352t421 139q143 0 270 -52t209 -146l-268 -291q-76 92 -205 92t-184 -104h264v-209h-305q-2 -8 -2 -10v-27q0 -18 2 -29h305v-209h-269q59 -112 189 -112t215 100l264 -293q-176 -205 -498 -205
q-254 0 -423 139.5t-209 360.5h-144z" />
    <glyph glyph-name="yen" unicode="&#xa5;" horiz-adv-x="1495" 
d="M508 193h-377v268h377v80h-377v268h270l-413 625h536l226 -414l227 414h530l-415 -625h272v-268h-377v-80h377v-268h-377v-193h-479v193z" />
    <glyph glyph-name="section" unicode="&#xa7;" horiz-adv-x="1269" 
d="M1126 315v-4q0 -144 -136 -243t-365 -99q-228 0 -355 52.5t-164 74.5l148 277q131 -74 230.5 -89.5t140.5 -15.5q88 0 88 49v5q0 23 -49.5 40t-121.5 33q-219 48 -350 107.5t-131 185.5v4q0 147 189 209q-107 84 -107 219v4q0 141 134 240.5t366 99.5q233 0 358 -52
t162 -75l-147 -276q-123 69 -227.5 86.5t-150.5 17.5q-81 0 -81 -47v-4q0 -38 171 -76q73 -16 157 -36.5t155.5 -53.5t119.5 -81t48 -122v-4q0 -147 -188 -209q106 -83 106 -217zM479 809q-96 0 -96 -53v-4q0 -29 59.5 -50.5t173.5 -49.5t175 -27q96 0 96 53v4
q0 29 -59.5 50.5t-177.5 49.5q-117 28 -171 27z" />
    <glyph glyph-name="dieresis" unicode="&#xa8;" 
d="M553 1495h377v-307h-377v307zM94 1495h377v-307h-377v307z" />
    <glyph glyph-name="copyright" unicode="&#xa9;" horiz-adv-x="1699" 
d="M848 -31q-156 0 -291 59.5t-234.5 161t-156.5 236.5t-57 287v4q0 152 57 287t157.5 237t236.5 162.5t292 60.5t291 -59t234.5 -160.5t156.5 -237t57 -286.5v-4q0 -152 -57 -287t-157.5 -237.5t-236.5 -163t-292 -60.5zM849 51q140 0 260 53.5t208 143.5t138 212t50 257v4
q0 135 -50 256t-137 211t-207 142t-260 52t-260 -53t-208 -143t-138 -212t-50 -257v-4q0 -135 49 -256t137 -211t208 -142.5t260 -52.5zM886 319q-206 0 -325 115t-119 289v4q0 170 120.5 289t303.5 119q238 0 353 -203l-218 -129q-23 43 -56 69.5t-93 26.5t-100.5 -49
t-40.5 -121v-4q0 -76 41 -123t102 -47t95 27.5t59 70.5l217 -123q-51 -88 -137 -149.5t-202 -61.5z" />
    <glyph glyph-name="ordfeminine" unicode="&#xaa;" horiz-adv-x="798" 
d="M283 811q-97 0 -153 48t-56 140v5q0 92 63.5 140t163.5 48t154 -23v7q0 90 -115 90q-80 0 -170 -35l-45 170q119 45 237 45q117 0 232 -36t115 -241v-346h-256v66q-73 -78 -170 -78zM70 719h651v-178h-651v178zM319 1016q0 -55 63 -55q30 0 52.5 23.5t22.5 68.5v24
q-25 10 -61 10t-56.5 -19t-20.5 -48v-4z" />
    <glyph glyph-name="guillemotleft" unicode="&#xab;" horiz-adv-x="1265" 
d="M545 541v16l375 500l319 -160l-266 -348l266 -348l-319 -160zM39 459v180l313 418l320 -160l-266 -348l266 -348l-320 -160z" />
    <glyph glyph-name="registered" unicode="&#xae;" horiz-adv-x="1699" 
d="M848 -31q-156 0 -291 59.5t-234.5 161t-156.5 236.5t-57 287v4q0 152 57 287t157.5 237t236.5 162.5t292 60.5t291 -59t234.5 -160.5t156.5 -237t57 -286.5v-4q0 -152 -57 -287t-157.5 -237.5t-236.5 -163t-292 -60.5zM849 51q140 0 260 53.5t208 143.5t138 212t50 257v4
q0 135 -50 256t-137 211t-207 142t-260 52t-260 -53t-208 -143t-138 -212t-50 -257v-4q0 -135 49 -256t137 -211t208 -142.5t260 -52.5zM1245 850q0 -162 -155 -238l184 -268h-299l-152 225h-55v-225h-264v789h385q271 0 313.5 -109t42.5 -170v-4zM983 838q0 73 -100 73
h-115v-153h113q102 0 102 76v4z" />
    <glyph glyph-name="macron" unicode="&#xaf;" 
d="M113 1454h798v-256h-798v256z" />
    <glyph glyph-name="macron" unicode="&#x2c9;" 
d="M113 1454h798v-256h-798v256z" />
    <glyph glyph-name="degree" unicode="&#xb0;" horiz-adv-x="950" 
d="M475 688q-160 0 -275.5 110t-115.5 269v4q0 155 115 268t274 113t276 -112.5t117 -268.5v-4q0 -159 -115.5 -269t-275.5 -110zM475.5 911q65.5 0 110.5 45t45 111v4q0 66 -47.5 112t-109.5 46t-108.5 -46t-46.5 -112v-4q0 -66 45.5 -111t111 -45z" />
    <glyph glyph-name="plusminus" unicode="&#xb1;" horiz-adv-x="1271" 
d="M672 1464q239 0 393 -107.5t154 -273.5v-4q0 -125 -67 -205.5t-175 -123.5q121 -31 197.5 -112t76.5 -220v-4q0 -195 -161 -320t-437 -125q-403 0 -661 260l282 285q160 -158 336 -158q80 0 127 32t47 73v4q0 39 -38.5 64.5t-151.5 25.5h-139v336h127q180 0 180 86v4
q0 45 -43 70.5t-109 25.5q-144 0 -284 -145l-271 272q229 260 617 260z" />
    <glyph glyph-name="acute" unicode="&#xb4;" 
d="M434 1581l453 -117l-338 -276h-311z" />
    <glyph glyph-name="mu" unicode="&#xb5;" horiz-adv-x="1662" 
d="M1614 717q0 -274 -180 -479l354 -373v-21h-598l-154 154q-98 -25 -236 -25t-279.5 57.5t-247 157t-165 234.5t-59.5 291v4q0 156 60.5 292t166 237.5t249 159.5t309 58t308 -57t248 -157.5t165 -236.5t59.5 -292v-4zM1130 713v4q0 130 -82.5 226.5t-216.5 96.5
q-133 0 -216 -93.5t-83 -225.5v-4q0 -130 83 -227t218 -97q133 0 215 94t82 226z" />
    <glyph glyph-name="mu" unicode="&#x3bc;" horiz-adv-x="1662" 
d="M1614 717q0 -274 -180 -479l354 -373v-21h-598l-154 154q-98 -25 -236 -25t-279.5 57.5t-247 157t-165 234.5t-59.5 291v4q0 156 60.5 292t166 237.5t249 159.5t309 58t308 -57t248 -157.5t165 -236.5t59.5 -292v-4zM1130 713v4q0 130 -82.5 226.5t-216.5 96.5
q-133 0 -216 -93.5t-83 -225.5v-4q0 -130 83 -227t218 -97q133 0 215 94t82 226z" />
    <glyph glyph-name="paragraph" unicode="&#xb6;" horiz-adv-x="1230" 
d="M670 430h-37q-277 0 -445 132.5t-168 363.5v4q0 242 170 373t461 131h498v-1434h-479v430z" />
    <glyph glyph-name="periodcentered" unicode="&#xb7;" horiz-adv-x="577" 
d="M51 881h475v-471h-475v471z" />
    <glyph glyph-name="periodcentered" unicode="&#x2219;" horiz-adv-x="577" 
d="M51 881h475v-471h-475v471z" />
    <glyph glyph-name="cedilla" unicode="&#xb8;" 
d="M207 -201l194 242h281l-119 -395z" />
    <glyph glyph-name="ordmasculine" unicode="&#xba;" horiz-adv-x="798" 
d="M151.5 896q-98.5 91 -98.5 224v4q0 136 99.5 228t248.5 92t246.5 -91.5t97.5 -224.5v-4q0 -134 -99 -226.5t-247.5 -92.5t-247 91zM104 719h590v-178h-590v178zM402 1018q44 0 71 27.5t27 74.5v4q0 47 -30 77t-74 30t-70.5 -27.5t-26.5 -75.5v-4q0 -47 29.5 -76.5
t73.5 -29.5z" />
    <glyph glyph-name="guillemotright" unicode="&#xbb;" horiz-adv-x="1265" 
d="M594 201l266 348l-266 348l319 160l314 -418v-180l-314 -418zM27 201l266 348l-266 348l319 160l375 -500v-16l-375 -500z" />
    <glyph glyph-name="questiondown" unicode="&#xbf;" horiz-adv-x="1099" 
d="M346 1434h475v-369h-475v369zM14 410v4q0 261 154 336t242 100l24 137h285l57 -354l-24 -25q-225 -27 -255 -71.5t-30 -69.5v-2q0 -35 30.5 -57.5t123 -22.5t258.5 129l221 -332q-231 -207 -559 -207q-232 0 -379.5 120.5t-147.5 314.5z" />
    <glyph glyph-name="Agrave" unicode="&#xc0;" horiz-adv-x="1638" 
d="M582 1444h475l604 -1444h-520l-76 193h-502l-74 -193h-512zM946 532l-131 349l-131 -349h262zM362 1792l453 117l197 -393h-312z" />
    <glyph glyph-name="Aacute" unicode="&#xc1;" horiz-adv-x="1638" 
d="M582 1444h475l604 -1444h-520l-76 193h-502l-74 -193h-512zM946 532l-131 349l-131 -349h262zM823 1909l453 -117l-338 -276h-311z" />
    <glyph glyph-name="Acircumflex" unicode="&#xc2;" horiz-adv-x="1638" 
d="M582 1444h475l604 -1444h-520l-76 193h-502l-74 -193h-512zM946 532l-131 349l-131 -349h262zM651 1868h336l273 -352h-261l-182 114l-182 -114h-256z" />
    <glyph glyph-name="Atilde" unicode="&#xc3;" horiz-adv-x="1638" 
d="M582 1444h475l604 -1444h-520l-76 193h-502l-74 -193h-512zM946 532l-131 349l-131 -349h262zM631 1882q73 0 189.5 -40t148.5 -40q33 0 50 21.5t36 68.5l207 -51q-31 -176 -90.5 -250.5t-148.5 -74.5t-204 39.5t-148 39.5q-34 0 -51.5 -21.5t-35.5 -68.5l-207 51
q31 176 90 251t164 75z" />
    <glyph glyph-name="Adieresis" unicode="&#xc4;" horiz-adv-x="1638" 
d="M582 1444h475l604 -1444h-520l-76 193h-502l-74 -193h-512zM946 532l-131 349l-131 -349h262zM860 1823h377v-307h-377v307zM401 1823h377v-307h-377v307z" />
    <glyph glyph-name="Aring" unicode="&#xc5;" horiz-adv-x="1638" 
d="M524 1546v4q0 111 87 194t208 83t208 -83t87 -194v-4q0 -72 -41 -139l588 -1407h-520l-76 193h-502l-74 -193h-512l588 1407q-41 71 -41 139zM819.5 1401q59.5 0 102.5 42t43 101v4q0 59 -43 101.5t-102.5 42.5t-102.5 -42t-43 -102v-4q0 -59 43 -101t102.5 -42zM946 532
l-131 349l-131 -349h262z" />
    <glyph glyph-name="AE" unicode="&#xc6;" horiz-adv-x="2211" 
d="M2154 1434v-394h-710v-145h659v-346h-659v-156h721v-393h-1182v193h-444l-97 -193h-481l744 1434h1449zM983 532v523h-12l-262 -523h274z" />
    <glyph glyph-name="Ccedilla" unicode="&#xc7;" horiz-adv-x="1480" 
d="M1065 860q-91 174 -241 174q-139 0 -213 -91t-74 -222v-4q0 -143 75 -230.5t185 -87.5t171.5 50.5t106.5 130.5l395 -224q-192 -338 -577 -383l-98 -327l-357 153l158 195q-237 63 -392 255.5t-155 463.5v4q0 160 58.5 297t162 237.5t242 156.5t278.5 56q465 0 670 -372z
" />
    <glyph glyph-name="Egrave" unicode="&#xc8;" horiz-adv-x="1361" 
d="M82 1434h1223v-394h-752v-145h700v-346h-700v-156h762v-393h-1233v1434zM295 1792l453 117l196 -393h-311z" />
    <glyph glyph-name="Eacute" unicode="&#xc9;" horiz-adv-x="1361" 
d="M82 1434h1223v-394h-752v-145h700v-346h-700v-156h762v-393h-1233v1434zM686 1909l453 -117l-338 -276h-312z" />
    <glyph glyph-name="Ecircumflex" unicode="&#xca;" horiz-adv-x="1361" 
d="M82 1434h1223v-394h-752v-145h700v-346h-700v-156h762v-393h-1233v1434zM537 1868h335l273 -352h-260l-183 114l-182 -114h-256z" />
    <glyph glyph-name="Edieresis" unicode="&#xcb;" horiz-adv-x="1361" 
d="M82 1434h1223v-394h-752v-145h700v-346h-700v-156h762v-393h-1233v1434zM745 1823h377v-307h-377v307zM287 1823h377v-307h-377v307z" />
    <glyph glyph-name="Igrave" unicode="&#xcc;" horiz-adv-x="651" 
d="M86 1434h479v-1434h-479v1434zM-141 1792l452 117l197 -393h-311z" />
    <glyph glyph-name="Iacute" unicode="&#xcd;" horiz-adv-x="651" 
d="M86 1434h479v-1434h-479v1434zM340 1909l453 -117l-338 -276h-312z" />
    <glyph glyph-name="Icircumflex" unicode="&#xce;" horiz-adv-x="651" 
d="M86 1434h479v-1434h-479v1434zM158 1868h336l272 -352h-260l-182 114l-183 -114h-256z" />
    <glyph glyph-name="Idieresis" unicode="&#xcf;" horiz-adv-x="651" 
d="M86 1434h479v-1434h-479v1434zM367 1823h376v-307h-376v307zM-92 1823h377v-307h-377v307z" />
    <glyph glyph-name="Eth" unicode="&#xd0;" horiz-adv-x="1673" 
d="M221 549h-174v346h174v539h549q418 0 636 -188.5t218 -516.5v-4q0 -331 -224.5 -528t-645.5 -197h-533v549zM1141 719q0 317 -361 317h-100v-141h176v-346h-176v-152h100q361 0 361 318v4z" />
    <glyph glyph-name="Ntilde" unicode="&#xd1;" horiz-adv-x="1597" 
d="M82 1434h448l510 -633v633h476v-1434h-426l-533 662v-662h-475v1434zM987 1516q-73 0 -188 39.5t-149 39.5t-51 -21.5t-36 -68.5l-207 51q31 176 90.5 251t148.5 75t205.5 -40t148.5 -40t49.5 21.5t35.5 68.5l207 -51q-31 -176 -90 -250.5t-164 -74.5z" />
    <glyph glyph-name="Ograve" unicode="&#xd2;" horiz-adv-x="1662" 
d="M829.5 -31q-165.5 0 -308 57.5t-248 158t-165 236.5t-59.5 292v4q0 156 60.5 292t166 237.5t249 159.5t309 58t308 -57t248 -157.5t165 -236.5t59.5 -292v-4q0 -156 -60.5 -292t-166 -237.5t-249 -160t-309 -58.5zM1130 713v4q0 130 -82.5 226.5t-216.5 96.5
q-133 0 -216 -93.5t-83 -225.5v-4q0 -130 83 -227t218 -97q133 0 215 94t82 226zM354 1792l453 117l197 -393h-312z" />
    <glyph glyph-name="Oacute" unicode="&#xd3;" horiz-adv-x="1662" 
d="M829.5 -31q-165.5 0 -308 57.5t-248 158t-165 236.5t-59.5 292v4q0 156 60.5 292t166 237.5t249 159.5t309 58t308 -57t248 -157.5t165 -236.5t59.5 -292v-4q0 -156 -60.5 -292t-166 -237.5t-249 -160t-309 -58.5zM1130 713v4q0 130 -82.5 226.5t-216.5 96.5
q-133 0 -216 -93.5t-83 -225.5v-4q0 -130 83 -227t218 -97q133 0 215 94t82 226zM856 1909l453 -117l-338 -276h-312z" />
    <glyph glyph-name="Ocircumflex" unicode="&#xd4;" horiz-adv-x="1662" 
d="M829.5 -31q-165.5 0 -308 57.5t-248 158t-165 236.5t-59.5 292v4q0 156 60.5 292t166 237.5t249 159.5t309 58t308 -57t248 -157.5t165 -236.5t59.5 -292v-4q0 -156 -60.5 -292t-166 -237.5t-249 -160t-309 -58.5zM1130 713v4q0 130 -82.5 226.5t-216.5 96.5
q-133 0 -216 -93.5t-83 -225.5v-4q0 -130 83 -227t218 -97q133 0 215 94t82 226zM664 1858h335l273 -353h-260l-183 115l-182 -115h-256z" />
    <glyph glyph-name="Otilde" unicode="&#xd5;" horiz-adv-x="1662" 
d="M829.5 -31q-165.5 0 -308 57.5t-248 158t-165 236.5t-59.5 292v4q0 156 60.5 292t166 237.5t249 159.5t309 58t308 -57t248 -157.5t165 -236.5t59.5 -292v-4q0 -156 -60.5 -292t-166 -237.5t-249 -160t-309 -58.5zM1130 713v4q0 130 -82.5 226.5t-216.5 96.5
q-133 0 -216 -93.5t-83 -225.5v-4q0 -130 83 -227t218 -97q133 0 215 94t82 226zM643 1882q73 0 190 -40t149 -40t49.5 21.5t35.5 68.5l207 -51q-31 -176 -90.5 -250.5t-163.5 -74.5q-73 0 -188.5 39.5t-149.5 39.5q-33 0 -50.5 -21.5t-35.5 -68.5l-207 51q31 176 90.5 251
t163.5 75z" />
    <glyph glyph-name="Odieresis" unicode="&#xd6;" horiz-adv-x="1662" 
d="M829.5 -31q-165.5 0 -308 57.5t-248 158t-165 236.5t-59.5 292v4q0 156 60.5 292t166 237.5t249 159.5t309 58t308 -57t248 -157.5t165 -236.5t59.5 -292v-4q0 -156 -60.5 -292t-166 -237.5t-249 -160t-309 -58.5zM1130 713v4q0 130 -82.5 226.5t-216.5 96.5
q-133 0 -216 -93.5t-83 -225.5v-4q0 -130 83 -227t218 -97q133 0 215 94t82 226zM872 1823h377v-307h-377v307zM414 1823h377v-307h-377v307z" />
    <glyph glyph-name="Oslash" unicode="&#xd8;" horiz-adv-x="1662" 
d="M1614 721v-4q0 -156 -60.5 -292t-166 -237.5t-249 -160t-309.5 -58.5q-227 0 -415 111l-80 -90h-301l207 229q-191 208 -191 494v4q0 156 60.5 292t166 237.5t249 159.5t309.5 58q228 0 415 -110l80 90h301l-207 -232q191 -208 191 -491zM796 1051q-105 0 -188.5 -98.5
t-83.5 -231.5v-4q0 -74 29 -148l405 453q-57 29 -162 29zM868.5 383q104.5 0 187.5 98t83 232v4q0 76 -29 145l-408 -450q62 -29 166.5 -29z" />
    <glyph glyph-name="Ugrave" unicode="&#xd9;" horiz-adv-x="1556" 
d="M70 643v791h487v-785q0 -133 62.5 -193.5t159.5 -60.5t158.5 56.5t61.5 187.5v795h488v-781q0 -351 -187.5 -516.5t-524 -165.5t-521 164.5t-184.5 507.5zM307 1782l453 116l196 -393h-311z" />
    <glyph glyph-name="Uacute" unicode="&#xda;" horiz-adv-x="1556" 
d="M70 643v791h487v-785q0 -133 62.5 -193.5t159.5 -60.5t158.5 56.5t61.5 187.5v795h488v-781q0 -351 -187.5 -516.5t-524 -165.5t-521 164.5t-184.5 507.5zM797 1898l452 -116l-338 -277h-311z" />
    <glyph glyph-name="Ucircumflex" unicode="&#xdb;" horiz-adv-x="1556" 
d="M70 643v791h487v-785q0 -133 62.5 -193.5t159.5 -60.5t158.5 56.5t61.5 187.5v795h488v-781q0 -351 -187.5 -516.5t-524 -165.5t-521 164.5t-184.5 507.5zM610 1868h336l273 -352h-261l-182 114l-182 -114h-256z" />
    <glyph glyph-name="Udieresis" unicode="&#xdc;" horiz-adv-x="1556" 
d="M70 643v791h487v-785q0 -133 62.5 -193.5t159.5 -60.5t158.5 56.5t61.5 187.5v795h488v-781q0 -351 -187.5 -516.5t-524 -165.5t-521 164.5t-184.5 507.5zM819 1823h377v-307h-377v307zM360 1823h377v-307h-377v307z" />
    <glyph glyph-name="Yacute" unicode="&#xdd;" horiz-adv-x="1495" 
d="M987 0h-479v508l-541 926h537l246 -471l247 471h531l-541 -920v-514zM733 1909l453 -117l-338 -276h-311z" />
    <glyph glyph-name="Thorn" unicode="&#xde;" horiz-adv-x="1413" 
d="M82 1434h479v-201h166q294 0 467.5 -126t173.5 -374v-4q0 -256 -176.5 -388t-474.5 -132h-156v-209h-479v1434zM690 561q92 0 148.5 40t56.5 118v4q0 78 -53.5 118t-149.5 40h-131v-320h129z" />
    <glyph glyph-name="germandbls" unicode="&#xdf;" horiz-adv-x="1331" 
d="M846 463q0 124 -203 133v209q59 23 108.5 70t49.5 116v4q0 59 -37 97t-92 38t-96 -47t-41 -145v-938h-465v932q0 265 154.5 424.5t455.5 159.5q251 0 409 -130.5t158 -324.5v-4q0 -121 -70.5 -211t-170.5 -127q196 -46 248.5 -153t52.5 -181v-4q0 -199 -189 -303.5
t-475 -83.5v319q94 8 148.5 46t54.5 100v4z" />
    <glyph glyph-name="agrave" unicode="&#xe0;" horiz-adv-x="1241" 
d="M27 317v5q0 168 114.5 258t311.5 90q101 0 173 -16.5t91 -24.5v18q0 162 -207 162q-148 0 -309 -64l-82 310q217 82 471 82q327 0 473 -146q63 -63 90 -147t27 -207v-637h-465v113q-131 -140 -309 -140t-278.5 90.5t-100.5 253.5zM471 354v-4q0 -49 31 -78.5t84 -29.5
t94 46t41 126v47q-45 18 -111 18t-102.5 -35.5t-36.5 -89.5zM174 1473l453 116l196 -393h-311z" />
    <glyph glyph-name="aacute" unicode="&#xe1;" horiz-adv-x="1241" 
d="M27 317v5q0 168 114.5 258t311.5 90q101 0 173 -16.5t91 -24.5v18q0 162 -207 162q-148 0 -309 -64l-82 310q217 82 471 82q327 0 473 -146q63 -63 90 -147t27 -207v-637h-465v113q-131 -140 -309 -140t-278.5 90.5t-100.5 253.5zM471 354v-4q0 -49 31 -78.5t84 -29.5
t94 46t41 126v47q-45 18 -111 18t-102.5 -35.5t-36.5 -89.5zM614 1589l453 -116l-338 -277h-311z" />
    <glyph glyph-name="acircumflex" unicode="&#xe2;" horiz-adv-x="1241" 
d="M27 317v5q0 168 114.5 258t311.5 90q101 0 173 -16.5t91 -24.5v18q0 162 -207 162q-148 0 -309 -64l-82 310q217 82 471 82q327 0 473 -146q63 -63 90 -147t27 -207v-637h-465v113q-131 -140 -309 -140t-278.5 90.5t-100.5 253.5zM471 354v-4q0 -49 31 -78.5t84 -29.5
t94 46t41 126v47q-45 18 -111 18t-102.5 -35.5t-36.5 -89.5zM444 1540h336l273 -352h-260l-183 115l-182 -115h-256z" />
    <glyph glyph-name="atilde" unicode="&#xe3;" horiz-adv-x="1241" 
d="M27 317v5q0 168 114.5 258t311.5 90q101 0 173 -16.5t91 -24.5v18q0 162 -207 162q-148 0 -309 -64l-82 310q217 82 471 82q327 0 473 -146q63 -63 90 -147t27 -207v-637h-465v113q-131 -140 -309 -140t-278.5 90.5t-100.5 253.5zM471 354v-4q0 -49 31 -78.5t84 -29.5
t94 46t41 126v47q-45 18 -111 18t-102.5 -35.5t-36.5 -89.5zM428 1554q73 0 188.5 -39.5t149.5 -39.5q33 0 50.5 21.5t35.5 68.5l207 -52q-31 -176 -90.5 -250.5t-163.5 -74.5q-73 0 -190 40t-149 40t-49.5 -21.5t-35.5 -68.5l-207 51q31 176 90.5 250.5t163.5 74.5z" />
    <glyph glyph-name="adieresis" unicode="&#xe4;" horiz-adv-x="1241" 
d="M27 317v5q0 168 114.5 258t311.5 90q101 0 173 -16.5t91 -24.5v18q0 162 -207 162q-148 0 -309 -64l-82 310q217 82 471 82q327 0 473 -146q63 -63 90 -147t27 -207v-637h-465v113q-131 -140 -309 -140t-278.5 90.5t-100.5 253.5zM471 354v-4q0 -49 31 -78.5t84 -29.5
t94 46t41 126v47q-45 18 -111 18t-102.5 -35.5t-36.5 -89.5zM653 1503h377v-307h-377v307zM195 1503h376v-307h-376v307z" />
    <glyph glyph-name="aring" unicode="&#xe5;" horiz-adv-x="1241" 
d="M27 317v5q0 168 114.5 258t311.5 90q101 0 173 -16.5t91 -24.5v18q0 162 -207 162q-148 0 -309 -64l-82 310q217 82 471 82q327 0 473 -146q63 -63 90 -147t27 -207v-637h-465v113q-131 -140 -309 -140t-278.5 90.5t-100.5 253.5zM471 354v-4q0 -49 31 -78.5t84 -29.5
t94 46t41 126v47q-45 18 -111 18t-102.5 -35.5t-36.5 -89.5zM405 1292.5q-88 84.5 -88 196.5v4q0 111 87 193.5t208 82.5q120 0 207.5 -82t87.5 -194v-4q0 -113 -88 -197t-207 -84t-207 84.5zM612.5 1343q59.5 0 102.5 42t43 102v4q0 59 -43 101t-102.5 42t-102.5 -42
t-43 -101v-4q0 -59 43 -101.5t102.5 -42.5z" />
    <glyph glyph-name="ae" unicode="&#xe6;" horiz-adv-x="1902" 
d="M434 -27q-172 0 -289.5 87.5t-117.5 256.5v5q0 168 114.5 258t311.5 90q101 0 173 -16.5t91 -24.5v18q0 162 -207 162q-148 0 -309 -64l-82 310q217 82 467 82t381 -109q140 117 331 117q278 0 425 -175t147 -442v-30q0 -29 -2 -47h-719q51 -150 211 -150q118 0 227 115
l250 -199q-84 -109 -206 -176.5t-304 -67.5q-286 0 -450 166q-213 -166 -443 -166zM1292 823q-60 0 -99.5 -45t-49.5 -123h303q-8 80 -51 124t-103 44zM584 246q83 0 172 76q-27 63 -37 139q-45 18 -110 18t-101.5 -35.5t-36.5 -89.5v-4q0 -49 33 -76.5t80 -27.5z" />
    <glyph glyph-name="ccedilla" unicode="&#xe7;" horiz-adv-x="1161" 
d="M481 561v-4q0 -88 48.5 -144.5t113.5 -56.5t104 30t74 83l338 -193q-142 -264 -438 -299l-100 -331l-357 153l164 203q-180 63 -286.5 214.5t-106.5 336.5v4q0 241 170.5 413.5t439.5 172.5q186 0 313 -86t193 -223l-334 -189q-62 113 -164 113q-74 0 -123 -56.5
t-49 -140.5z" />
    <glyph glyph-name="egrave" unicode="&#xe8;" horiz-adv-x="1224" 
d="M672 -27q-297 0 -467 159.5t-170 420.5v4q0 250 161.5 419t431.5 169t417 -173t147 -444v-30q0 -29 -2 -47h-719q51 -150 211 -150q118 0 227 115l250 -199q-84 -109 -205.5 -176.5t-281.5 -67.5zM614 823q-60 0 -99.5 -45t-49.5 -123h303q-8 80 -51 124t-103 44z
M150 1473l452 116l197 -393h-312z" />
    <glyph glyph-name="eacute" unicode="&#xe9;" horiz-adv-x="1224" 
d="M672 -27q-297 0 -467 159.5t-170 420.5v4q0 250 161.5 419t431.5 169t417 -173t147 -444v-30q0 -29 -2 -47h-719q51 -150 211 -150q118 0 227 115l250 -199q-84 -109 -205.5 -176.5t-281.5 -67.5zM614 823q-60 0 -99.5 -45t-49.5 -123h303q-8 80 -51 124t-103 44z
M627 1589l452 -116l-338 -277h-311z" />
    <glyph glyph-name="ecircumflex" unicode="&#xea;" horiz-adv-x="1224" 
d="M672 -27q-297 0 -467 159.5t-170 420.5v4q0 250 161.5 419t431.5 169t417 -173t147 -444v-30q0 -29 -2 -47h-719q51 -150 211 -150q118 0 227 115l250 -199q-84 -109 -205.5 -176.5t-281.5 -67.5zM614 823q-60 0 -99.5 -45t-49.5 -123h303q-8 80 -51 124t-103 44z
M446 1532h336l273 -352h-260l-183 114l-182 -114h-256z" />
    <glyph glyph-name="edieresis" unicode="&#xeb;" horiz-adv-x="1224" 
d="M672 -27q-297 0 -467 159.5t-170 420.5v4q0 250 161.5 419t431.5 169t417 -173t147 -444v-30q0 -29 -2 -47h-719q51 -150 211 -150q118 0 227 115l250 -199q-84 -109 -205.5 -176.5t-281.5 -67.5zM614 823q-60 0 -99.5 -45t-49.5 -123h303q-8 80 -51 124t-103 44z
M655 1495h377v-307h-377v307zM197 1495h376v-307h-376v307z" />
    <glyph glyph-name="igrave" unicode="&#xec;" horiz-adv-x="612" 
d="M74 1118h465v-1118h-465v1118zM-154 1464l453 117l197 -393h-312z" />
    <glyph glyph-name="iacute" unicode="&#xed;" horiz-adv-x="612" 
d="M74 1118h465v-1118h-465v1118zM319 1581l453 -117l-338 -276h-311z" />
    <glyph glyph-name="icircumflex" unicode="&#xee;" horiz-adv-x="612" 
d="M74 1118h465v-1118h-465v1118zM141 1540h336l273 -352h-261l-182 115l-182 -115h-256z" />
    <glyph glyph-name="idieresis" unicode="&#xef;" horiz-adv-x="612" 
d="M74 1118h465v-1118h-465v1118zM350 1495h377v-307h-377v307zM-109 1495h377v-307h-377v307z" />
    <glyph glyph-name="eth" unicode="&#xf0;" horiz-adv-x="1359" 
d="M45 510v4q0 178 137 311t371 133q59 0 114.5 -13t75.5 -32l-149 203l-240 -84l-151 209l246 72l-134 182h476l38 -57l201 69l152 -209l-213 -61l94 -135q128 -187 173.5 -304.5t45.5 -269.5v-4q0 -238 -173.5 -394.5t-447 -156.5t-445 154.5t-171.5 382.5zM668 360
q80 0 124 45.5t44 104.5v4q0 61 -48 108.5t-128 47.5t-124 -46t-44 -106v-4q0 -61 48 -107.5t128 -46.5z" />
    <glyph glyph-name="ntilde" unicode="&#xf1;" horiz-adv-x="1320" 
d="M865 1145q190 0 292.5 -108.5t102.5 -299.5v-737h-465v588q0 72 -37 111.5t-90.5 39.5t-93 -40t-39.5 -111v-588h-465v1118h465v-155q140 182 330 182zM818 1475q34 0 51.5 21.5t35.5 68.5l207 -52q-31 -176 -90 -250.5t-164 -74.5q-73 0 -189.5 40t-148.5 40
q-33 0 -50 -21.5t-36 -68.5l-207 51q31 176 90.5 250.5t148.5 74.5t203.5 -39.5t148.5 -39.5z" />
    <glyph glyph-name="ograve" unicode="&#xf2;" horiz-adv-x="1327" 
d="M594.5 -27q-204.5 0 -382 170t-177.5 412v4q0 241 179 413.5t452 172.5t449.5 -170.5t176.5 -411.5v-4q0 -119 -47 -225.5t-130 -186t-199.5 -127t-321 -47.5zM665.5 360q77.5 0 129 57.5t51.5 137.5v4q0 84 -53.5 141.5t-131 57.5t-129 -57.5t-51.5 -137.5v-4
q0 -84 53.5 -141.5t131 -57.5zM195 1473l452 116l197 -393h-312z" />
    <glyph glyph-name="oacute" unicode="&#xf3;" horiz-adv-x="1327" 
d="M594.5 -27q-204.5 0 -382 170t-177.5 412v4q0 241 179 413.5t452 172.5t449.5 -170.5t176.5 -411.5v-4q0 -119 -47 -225.5t-130 -186t-199.5 -127t-321 -47.5zM665.5 360q77.5 0 129 57.5t51.5 137.5v4q0 84 -53.5 141.5t-131 57.5t-129 -57.5t-51.5 -137.5v-4
q0 -84 53.5 -141.5t131 -57.5zM680 1589l453 -116l-338 -277h-312z" />
    <glyph glyph-name="ocircumflex" unicode="&#xf4;" horiz-adv-x="1327" 
d="M594.5 -27q-204.5 0 -382 170t-177.5 412v4q0 241 179 413.5t452 172.5t449.5 -170.5t176.5 -411.5v-4q0 -119 -47 -225.5t-130 -186t-199.5 -127t-321 -47.5zM665.5 360q77.5 0 129 57.5t51.5 137.5v4q0 84 -53.5 141.5t-131 57.5t-129 -57.5t-51.5 -137.5v-4
q0 -84 53.5 -141.5t131 -57.5zM496 1532h335l273 -352h-260l-182 114l-183 -114h-256z" />
    <glyph glyph-name="otilde" unicode="&#xf5;" horiz-adv-x="1327" 
d="M594.5 -27q-204.5 0 -382 170t-177.5 412v4q0 241 179 413.5t452 172.5t449.5 -170.5t176.5 -411.5v-4q0 -119 -47 -225.5t-130 -186t-199.5 -127t-321 -47.5zM665.5 360q77.5 0 129 57.5t51.5 137.5v4q0 84 -53.5 141.5t-131 57.5t-129 -57.5t-51.5 -137.5v-4
q0 -84 53.5 -141.5t131 -57.5zM475 1554q73 0 188.5 -39.5t149.5 -39.5q33 0 50.5 21.5t35.5 68.5l207 -52q-31 -176 -90.5 -250.5t-163.5 -74.5q-73 0 -190 40t-149 40t-49.5 -21.5t-35.5 -68.5l-207 51q31 176 90.5 250.5t163.5 74.5z" />
    <glyph glyph-name="odieresis" unicode="&#xf6;" horiz-adv-x="1327" 
d="M594.5 -27q-204.5 0 -382 170t-177.5 412v4q0 241 179 413.5t452 172.5t449.5 -170.5t176.5 -411.5v-4q0 -119 -47 -225.5t-130 -186t-199.5 -127t-321 -47.5zM665.5 360q77.5 0 129 57.5t51.5 137.5v4q0 84 -53.5 141.5t-131 57.5t-129 -57.5t-51.5 -137.5v-4
q0 -84 53.5 -141.5t131 -57.5zM705 1495h376v-307h-376v307zM246 1495h377v-307h-377v307z" />
    <glyph glyph-name="oslash" unicode="&#xf8;" horiz-adv-x="1327" 
d="M1292 563v-4q0 -119 -47 -225.5t-130 -186t-199.5 -127t-274.5 -47.5t-305 80l-60 -63h-272l176 188q-145 162 -145 377v4q0 241 179 413.5t452 172.5q184 0 325 -82l60 65h272l-174 -188q143 -164 143 -377zM658 780q-82 0 -140.5 -63.5t-58.5 -153.5v-4q0 -41 8 -72
l264 283q-35 10 -73 10zM670 338q81 0 139.5 63.5t58.5 153.5v4q0 39 -8 70l-260 -283q32 -8 70 -8z" />
    <glyph glyph-name="ugrave" unicode="&#xf9;" horiz-adv-x="1320" 
d="M444 -27q-178 0 -280.5 108.5t-102.5 299.5v737h465v-588q0 -72 37 -111.5t90.5 -39.5t93 40t39.5 111v588h465v-1118h-465v150q-53 -70 -138 -123.5t-204 -53.5zM223 1464l453 117l196 -393h-311z" />
    <glyph glyph-name="uacute" unicode="&#xfa;" horiz-adv-x="1320" 
d="M444 -27q-178 0 -280.5 108.5t-102.5 299.5v737h465v-588q0 -72 37 -111.5t90.5 -39.5t93 40t39.5 111v588h465v-1118h-465v150q-53 -70 -138 -123.5t-204 -53.5zM643 1581l453 -117l-338 -276h-312z" />
    <glyph glyph-name="ucircumflex" unicode="&#xfb;" horiz-adv-x="1320" 
d="M444 -27q-178 0 -280.5 108.5t-102.5 299.5v737h465v-588q0 -72 37 -111.5t90.5 -39.5t93 40t39.5 111v588h465v-1118h-465v150q-53 -70 -138 -123.5t-204 -53.5zM492 1540h335l273 -352h-260l-183 115l-182 -115h-256z" />
    <glyph glyph-name="udieresis" unicode="&#xfc;" horiz-adv-x="1320" 
d="M444 -27q-178 0 -280.5 108.5t-102.5 299.5v737h465v-588q0 -72 37 -111.5t90.5 -39.5t93 40t39.5 111v588h465v-1118h-465v150q-53 -70 -138 -123.5t-204 -53.5zM700 1495h377v-307h-377v307zM242 1495h376v-307h-376v307z" />
    <glyph glyph-name="yacute" unicode="&#xfd;" horiz-adv-x="1335" 
d="M946 78q-84 -227 -191.5 -319.5t-312.5 -92.5t-413 117l135 317q131 -73 190 -73q58 0 90 16l-438 1075h481l195 -590l178 590h473zM651 1581l453 -117l-338 -276h-311z" />
    <glyph glyph-name="thorn" unicode="&#xfe;" horiz-adv-x="1384" 
d="M70 1495h465v-514q75 80 147.5 122t178.5 42q211 0 349 -162.5t138 -415.5v-4q0 -258 -137 -424t-341 -166q-127 0 -204.5 47.5t-130.5 106.5v-455h-465v1823zM897 557v4q0 86 -53 143.5t-133 57.5t-133.5 -57.5t-53.5 -143.5v-4q0 -82 53 -141.5t133 -59.5
q81 0 134 57.5t53 143.5z" />
    <glyph glyph-name="ydieresis" unicode="&#xff;" horiz-adv-x="1335" 
d="M946 78q-84 -227 -191.5 -319.5t-312.5 -92.5t-413 117l135 317q131 -73 190 -73q58 0 90 16l-438 1075h481l195 -590l178 590h473zM702 1495h377v-307h-377v307zM244 1495h377v-307h-377v307z" />
    <glyph glyph-name="dotlessi" unicode="&#x131;" horiz-adv-x="612" 
d="M74 1118h465v-1118h-465v1118z" />
    <glyph glyph-name="Lslash" unicode="&#x141;" horiz-adv-x="1370" 
d="M205 1434h479v-410l332 96v-415l-332 -97v-198h664v-410h-1143v467l-158 -45v416l158 45v551z" />
    <glyph glyph-name="lslash" unicode="&#x142;" horiz-adv-x="899" 
d="M217 1495h465v-455l180 52v-406l-180 -51v-635h-465v508l-180 -51v403l180 51v584z" />
    <glyph glyph-name="OE" unicode="&#x152;" horiz-adv-x="2211" 
d="M903 0q-419 0 -636.5 189t-217.5 516v4q0 330 225 527.5t646 197.5h1234v-394h-710v-145h659v-346h-659v-156h721v-393h-1262zM973 406v622h-90q-158 0 -254.5 -75.5t-96.5 -233.5v-4q0 -154 96.5 -231.5t254.5 -77.5h90z" />
    <glyph glyph-name="oe" unicode="&#x153;" horiz-adv-x="2035" 
d="M35 555v4q0 243 178 414.5t435 171.5t415 -150q146 150 369 150q277 0 424 -175t147 -442v-30q0 -29 -2 -47h-719q51 -150 211 -150q118 0 227 115l250 -199q-84 -109 -203.5 -176.5t-296.5 -67.5q-262 0 -413 146q-163 -146 -417 -146q-253 0 -429 170.5t-176 411.5z
M1424 823q-60 0 -99 -45t-49 -123h303q-8 80 -51.5 124t-103.5 44zM665.5 360q77.5 0 129 57.5t51.5 137.5v4q0 84 -53.5 141.5t-131 57.5t-129 -57.5t-51.5 -137.5v-4q0 -84 53.5 -141.5t131 -57.5z" />
    <glyph glyph-name="Scaron" unicode="&#x160;" horiz-adv-x="1359" 
d="M528 1022v-4q0 -30 40 -51t164 -44q288 -52 443.5 -155.5t155.5 -304.5v-4q0 -224 -171.5 -355t-461.5 -131q-461 0 -735 242l256 305q218 -168 502 -168q123 0 123 62v4q0 31 -42 51t-160 44q-288 59 -444.5 156t-156.5 304v4q0 210 159.5 346.5t448.5 136.5
q397 0 647 -196l-233 -324q-195 141 -433 141q-102 0 -102 -59zM221 1868h260l183 -115l182 115h256l-273 -352h-335z" />
    <glyph glyph-name="scaron" unicode="&#x161;" horiz-adv-x="1075" 
d="M561 274q68 0 68 37v4q0 16 -24.5 29.5t-119.5 38.5q-231 61 -338.5 136.5t-107.5 238.5v4q0 182 133.5 282.5t353.5 100.5q286 0 502 -129l-147 -277q-90 49 -187.5 77t-166.5 28t-68 -35v-4q0 -16 26.5 -30.5t121.5 -38.5q229 -58 335.5 -136.5t106.5 -237.5v-4
q0 -184 -128.5 -284.5t-357.5 -100.5q-328 0 -573 162l157 264q202 -125 414 -125zM98 1540h260l183 -115l182 115h256l-272 -352h-336z" />
    <glyph glyph-name="Ydieresis" unicode="&#x178;" horiz-adv-x="1495" 
d="M987 0h-479v508l-541 926h537l246 -471l247 471h531l-541 -920v-514zM788 1823h377v-307h-377v307zM330 1823h377v-307h-377v307z" />
    <glyph glyph-name="Zcaron" unicode="&#x17d;" horiz-adv-x="1409" 
d="M61 1040v394h1313v-336l-649 -705h649v-393h-1337v336l649 704h-625zM276 1868h261l182 -115l182 115h256l-272 -352h-336z" />
    <glyph glyph-name="zcaron" unicode="&#x17e;" horiz-adv-x="1153" 
d="M49 754v364h1079v-291l-456 -462h456v-365h-1097v291l454 463h-436zM129 1540h260l182 -115l183 115h256l-273 -352h-336z" />
    <glyph glyph-name="florin" unicode="&#x192;" horiz-adv-x="1165" 
d="M1002 1139q-68 0 -106 -28t-50 -93l-8 -43h233v-330h-293l-47 -264q-40 -225 -148.5 -318.5t-332.5 -93.5q-102 0 -230 31v311q59 -16 121 -16t90.5 30.5t42.5 110.5l37 209h-112v330h172l22 119q35 201 164 285.5t342 84.5q145 0 246 -30v-312q-75 17 -143 17z" />
    <glyph glyph-name="circumflex" unicode="&#x2c6;" 
d="M344 1540h336l272 -352h-260l-182 115l-182 -115h-256z" />
    <glyph glyph-name="caron" unicode="&#x2c7;" 
d="M72 1540h260l182 -115l182 115h256l-272 -352h-336z" />
    <glyph glyph-name="breve" unicode="&#x2d8;" 
d="M512 1425q137 0 176 115h246q-16 -172 -129 -264t-293 -92t-293 92t-129 264h246q39 -115 176 -115z" />
    <glyph glyph-name="dotaccent" unicode="&#x2d9;" 
d="M319 1495h386v-307h-386v307z" />
    <glyph glyph-name="ring" unicode="&#x2da;" 
d="M305 1292q-88 84 -88 197v4q0 112 87.5 194t207.5 82t207.5 -82t87.5 -194v-4q0 -113 -88 -197t-207 -84t-207 84zM512 1343q59 0 102 42t43 102v4q0 59 -43 101t-102 42t-102 -42t-43 -101v-4q0 -59 43 -101.5t102 -42.5z" />
    <glyph glyph-name="ogonek" unicode="&#x2db;" 
d="M299 -125q0 78 45 145h285q-33 -90 22.5 -125.5t147.5 -33.5v-197q-250 -31 -375 29.5t-125 181.5z" />
    <glyph glyph-name="tilde" unicode="&#x2dc;" 
d="M324 1554q73 0 188 -39.5t148 -39.5q34 0 51.5 21.5t36.5 68.5l206 -52q-31 -176 -90 -250.5t-164 -74.5q-73 0 -189.5 40t-148.5 40t-49.5 -21.5t-36.5 -68.5l-206 51q31 176 90 250.5t164 74.5z" />
    <glyph glyph-name="hungarumlaut" unicode="&#x2dd;" 
d="M201 1581l362 -100l45 100l420 -117l-317 -276h-279l82 182l-209 -182h-280z" />
    <glyph glyph-name="Omega" unicode="&#x3a9;" horiz-adv-x="1744" 
d="M1591 1204q-109 0 -108 -90v-8h258v-346h-248v-760h-465v760h-131v346h131q6 306 158.5 354.5t303.5 48.5t251 -30v-291q-70 16 -150 16zM719 1204q-109 0 -109 -90v-8h258v-346h-247v-760h-465v760h-131v358h131q13 296 162 343.5t299 47.5t251 -30v-291q-70 16 -149 16
z" />
    <glyph glyph-name="Omega" unicode="&#x2126;" horiz-adv-x="1744" 
d="M1591 1204q-109 0 -108 -90v-8h258v-346h-248v-760h-465v760h-131v346h131q6 306 158.5 354.5t303.5 48.5t251 -30v-291q-70 16 -150 16zM719 1204q-109 0 -109 -90v-8h258v-346h-247v-760h-465v760h-131v358h131q13 296 162 343.5t299 47.5t251 -30v-291q-70 16 -149 16
z" />
    <glyph glyph-name="pi" unicode="&#x3c0;" horiz-adv-x="1699" 
d="M848 -31q-156 0 -291 59.5t-234.5 161t-156.5 236.5t-57 287v4q0 152 57 287t157.5 237t236.5 162.5t292 60.5t291 -59t234.5 -160.5t156.5 -237t57 -286.5v-4q0 -152 -57 -287t-157.5 -237.5t-236.5 -163t-292 -60.5zM849 51q140 0 260 53.5t208 143.5t138 212t50 257v4
q0 135 -50 256t-137 211t-207 142t-260 52t-260 -53t-208 -143t-138 -212t-50 -257v-4q0 -135 49 -256t137 -211t208 -142.5t260 -52.5zM541 1124h354q160 0 256 -70.5t96 -211.5v-4q0 -139 -96.5 -214t-259.5 -75h-86v-213h-264v788zM987 827q0 86 -110 86h-72v-176h69
q51 0 82 22.5t31 63.5v4z" />
    <glyph glyph-name="endash" unicode="&#x2013;" horiz-adv-x="1081" 
d="M61 831h959v-372h-959v372z" />
    <glyph glyph-name="emdash" unicode="&#x2014;" horiz-adv-x="1839" 
d="M61 831h1717v-372h-1717v372z" />
    <glyph glyph-name="quoteleft" unicode="&#x2018;" horiz-adv-x="577" 
d="M47 995q0 344 180.5 394.5t280.5 54.5l37 -170q-100 -12 -154.5 -58.5t-54.5 -123.5h186v-471h-475v374z" />
    <glyph glyph-name="quoteright" unicode="&#x2019;" horiz-adv-x="577" 
d="M242 963h-187v471h475v-375q0 -342 -180 -393.5t-280 -55.5l-37 170q100 12 154.5 58.5t54.5 124.5z" />
    <glyph glyph-name="quotesinglbase" unicode="&#x201a;" horiz-adv-x="577" 
d="M238 0h-187v471h475v-375q0 -343 -180 -393.5t-280 -54.5l-37 170q209 25 209 182z" />
    <glyph glyph-name="quotedblleft" unicode="&#x201c;" horiz-adv-x="1134" 
d="M614 995q0 337 175.5 391t275.5 58l37 -170q-199 -25 -199 -182h176v-471h-465v374zM47 995q0 337 175 391t276 58l37 -170q-199 -25 -199 -182h176v-471h-465v374z" />
    <glyph glyph-name="quotedblright" unicode="&#x201d;" horiz-adv-x="1134" 
d="M799 963h-176v471h464v-375q0 -431 -450 -449l-37 170q199 25 199 183zM55 963v471h465v-375q0 -431 -450 -449l-37 170q199 25 198 183h-176z" />
    <glyph glyph-name="quotedblbase" unicode="&#x201e;" horiz-adv-x="1130" 
d="M795 0h-177v471h465v-375q0 -336 -175 -390t-275 -58l-37 170q199 25 199 182zM51 0v471h465v-375q0 -336 -175 -390t-275 -58l-37 170q199 25 198 182h-176z" />
    <glyph glyph-name="dagger" unicode="&#x2020;" horiz-adv-x="839" 
d="M324 979l-267 -31v252l265 -31l-37 265h270l-37 -265l264 31v-252l-266 31l21 -553h-234z" />
    <glyph glyph-name="daggerdbl" unicode="&#x2021;" horiz-adv-x="880" 
d="M342 264l-264 -31v252l270 -30l-35 262l35 262l-270 -31v252l264 -31l-37 265h270l-36 -265l264 31v-252l-271 31l35 -262l-35 -262l271 30v-252l-264 31l36 -264h-270z" />
    <glyph glyph-name="bullet" unicode="&#x2022;" 
d="M512 334q-160 0 -273.5 113.5t-113.5 271.5v4q0 158 113.5 271.5t273.5 113.5t273.5 -113.5t113.5 -271.5v-4q0 -158 -113.5 -271.5t-273.5 -113.5z" />
    <glyph glyph-name="ellipsis" unicode="&#x2026;" horiz-adv-x="1720" 
d="M1202 467h467v-467h-467v467zM627 467h467v-467h-467v467zM51 467h467v-467h-467v467z" />
    <glyph glyph-name="perthousand" unicode="&#x2030;" horiz-adv-x="2762" 
d="M51 1051v4q0 167 106.5 284t285 117t285 -118t106.5 -283v-4q0 -165 -109.5 -283.5t-282 -118.5t-282 118.5t-109.5 283.5zM1386 1434h310l-1164 -1434h-309zM1929 379v4q0 165 106.5 283t285 118t285 -118t106.5 -283v-4q0 -164 -109.5 -283t-282 -119t-282 119
t-109.5 283zM1085 379v4q0 165 106.5 283t285 118t285 -118t106.5 -283v-4q0 -164 -109.5 -283t-282 -119t-282 119t-109.5 283zM442 909q41 0 74 38t33 104v4q0 66 -32 103.5t-76 37.5t-74.5 -38t-30.5 -103v-4q0 -66 32.5 -104t73.5 -38zM2320 238q41 0 74 37.5t33 103.5
v4q0 66 -32 103.5t-76 37.5t-74.5 -37.5t-30.5 -103.5v-4q0 -66 32.5 -103.5t73.5 -37.5zM1477 238q41 0 73.5 37.5t32.5 103.5v4q0 66 -31.5 103.5t-75.5 37.5t-75 -37.5t-31 -103.5v-4q0 -66 33 -103.5t74 -37.5z" />
    <glyph glyph-name="guilsinglleft" unicode="&#x2039;" horiz-adv-x="698" 
d="M39 459v180l313 418l320 -160l-266 -348l266 -348l-320 -160z" />
    <glyph glyph-name="guilsinglright" unicode="&#x203a;" horiz-adv-x="698" 
d="M27 201l266 348l-266 348l319 160l313 -418v-180l-313 -418z" />
    <glyph glyph-name="fraction" unicode="&#x2044;" horiz-adv-x="1067" 
d="M801 1552h373l-953 -1753h-373z" />
    <glyph glyph-name="fraction" unicode="&#x2215;" horiz-adv-x="1067" 
d="M801 1552h373l-953 -1753h-373z" />
    <glyph glyph-name="trademark" unicode="&#x2122;" horiz-adv-x="1433" 
d="M664 1434h219l135 -222l135 222h221v-631h-211v313l-145 -225h-2l-146 225v-313h-206v631zM201 1253h-187v181h582v-181h-186v-450h-209v450z" />
    <glyph glyph-name="radical" unicode="&#x221a;" horiz-adv-x="2357" 
d="M1591 1204q-109 0 -108 -90v-8h258v-346h-248v-760h-465v760h-131v346h131q6 306 158.5 354.5t303.5 48.5t251 -30v-291q-70 16 -150 16zM719 1204q-109 0 -109 -90v-8h258v-346h-247v-760h-465v760h-131v358h131q13 296 162 343.5t299 47.5t251 -30v-291q-70 16 -149 16
zM1819 1495h465v-1495h-465v1495z" />
    <glyph glyph-name="approxequal" unicode="&#x2248;" horiz-adv-x="2357" 
d="M1810 1495h482v-297h-482v297zM1591 1204q-109 0 -108 -90v-8h258v-346h-248v-760h-465v760h-131v346h131q6 306 158.5 354.5t303.5 48.5t251 -30v-291q-70 16 -150 16zM719 1204q-109 0 -109 -90v-8h258v-346h-247v-760h-465v760h-131v358h131q13 296 162 343.5
t299 47.5t251 -30v-291q-70 16 -149 16zM1819 1118h465v-1118h-465v1118z" />
    <glyph glyph-name="NUL" horiz-adv-x="0" 
 />
    <glyph glyph-name="apple" horiz-adv-x="1980" 
d="M207 0v1536h1571v-1536h-1571zM1747 -213l-6 41l-21 -43h-4l-20 43l-6 -41h-13l13 70h2l26 -54l27 54h2l12 -70h-12zM1651 -178q0 -37 -35 -37t-35 35q0 16 10.5 26.5t25.5 10.5t24.5 -10.5t9.5 -24.5zM1530 -215q-37 0 -37 35q0 16 10.5 26.5t24.5 10.5t24 -7l-4 -10
q-6 6 -17 6t-18.5 -7t-7.5 -17q0 -27 27 -27q8 0 20 8l-2 -12q-6 -6 -20 -6zM1411 -213h-12v29l-29 39l12 2l23 -31l18 29h15l-27 -39v-29zM1331 -213v31h-33v-31h-12v68h12v-27h33v27h12v-68h-12zM1253 -168q0 -25 -34 -25v-20h-13v68q47 6 47 -23zM1167 -213l-8 16h-29
l-6 -16h-12l31 70h4l33 -70h-13zM1053 -190v-23h-13v68q47 6 47 -21q0 -14 -14 -20l21 -27h-15l-16 23h-10zM979 -215q-37 0 -37 25.5t11.5 36t25.5 10.5t27 -9l-5 -10q-8 8 -22 8q-25 0 -25 -26t27 -25q4 0 12 4v15h-18v10h31v-31q-12 -8 -27 -8zM880.5 -215
q-34.5 0 -34.5 35q0 16 10 26.5t26 10.5t24.5 -10.5t8.5 -24.5q0 -37 -34.5 -37zM819 -168q0 -25 -35 -25v-20h-12v68q47 6 47 -23zM719 -213h-12v29l-29 39l12 2l23 -31l18 29h14l-26 -39v-29zM662 -156h-25v-57h-12v57h-25v11h62v-11zM522 -215h-2l-22 47l-21 -47h-2
l-24 70l12 2l14 -47l21 47h2l20 -47l15 45h12zM408 -215h-2l-23 47l-21 -47h-2l-24 70l12 2l14 -47l21 47h2l21 -47l14 45h12zM293 -215h-2l-23 47l-20 -47h-2l-25 70l12 2l15 -47l20 47h2l21 -47l14 45h12zM1466 -207q0 -8 -8 -8t-8 8t8 8t8 -8zM582 -207q0 -8 -8.5 -8
t-8.5 8t8.5 8t8.5 -8zM1094 1423q6 0 6 -6v-47q0 -10 -4 -11t-6 1v-4h34v4q-4 -2 -7 -1t-3 11v47q0 6 6 6t14 -7t7 -11h4v8q0 4 -1 8t-1 9q-4 -2 -35 -2.5t-37 2.5l-2 -17v-8h4q9 18 21 18zM981 1360q-10 0 -10 10v21h35v-21q0 -10 -7 -10q-2 -2 -4 0v-4h37v4q-12 -6 -12 10
v43q0 6 6 10h6v4h-37v-4h4q6 -6 7 -10v-18h-35v18q0 6 4 10h6v4h-35v-4h4q6 -6 6 -10v-43q0 -4 -2 -5t-4 -3t-4 -2v-4h35v4zM854 1378q0 10 12 13h8v-23q0 -6 -8 -6h-8q-8 0 -14 6t-6 12l-4 -2l4 -22h61v4q-4 -2 -7 -1t-3 11v43q0 6 4 10h6v4h-59l-4 -20l4 -2q0 4 4 10t14 6
h8q8 0 8 -6v-20h-8q-12 0 -12 10h-4v-27h4zM1694 1278h-1403v-12h1403v12zM1371 1061q54 0 54 48q0 28 -23.5 51.5t-44.5 23.5q-54 0 -54 -45q0 -33 23.5 -55.5t44.5 -22.5zM1206 1100q0 25 -28 35q10 6 10 17t-11 21.5t-35 10.5t-24 -23q0 -12 9 -12t9.5 6t-3 7t-3.5 8
t15 8q20 0 20 -25q0 -8 -4 -12q-33 3 -33 -11t14 -14t25 10q13 -10 13 -34t-25 -24.5t-25 17.5q0 6 7 7l10 -5q8 0 8 10.5t-16 10.5t-17 -21q0 -27 42 -27t42 40zM604 1100q0 25 -29 35q24 15 6.5 32t-41.5 17t-24 -23q0 -12 9 -12t9.5 6t-3 7t-3.5 8t15 8q20 0 20 -25
q0 -8 -4 -12q-33 3 -33 -11t14 -14t25 10q13 -10 13 -34t-25 -24.5t-25 17.5q0 6 7 7l10 -5q8 0 8 10.5t-16 10.5t-17 -21q0 -27 42 -27t42 40zM1679 1069q-16 0 -20 16l-14 72q-3 13 14 17l-2 6h-58l3 -6q15 0 18 -17l6 -31h-49l-6 31q-3 13 14 17l-2 6h-59l2 -6
q17 0 20 -17l15 -72q1 -10 -5 -13t-10 -3l2 -6h60l-2 6q-17 0 -21 16l-6 33h49l6 -33q3 -16 -14 -16l2 -6h59zM942 1098q0 22 16 22h9l6 -35q3 -16 -15 -16l3 -6h59l-2 6q-17 0 -21 16l-14 72q-3 13 14 17l-2 6h-92v-35h8q-2 6 2 12q4 14 25 14h8q10 0 12 -12l7 -33h-9
q-18 0 -24 19h-6l10 -47h6zM295 1149q0 -26 39 -31l-19 -33q-8 -16 -28 -16l2 -6h39l24 47q2 6 10 6l7 -31q1 -10 -5 -13t-10 -3l2 -6h60l-2 6q-17 0 -21 16l-14 72q-3 13 14 17l-2 6h-55q-41 0 -41 -31zM705 1075q1 -26 29 -26t32 13t20 13q6 -14 20 -14t13 5q0 15 -26 19
q-8 6 -9.5 21.5t-7 46.5t-43.5 31q-10 0 -18 -7.5t-8 -15.5t9 -8t9 12.5t12 12.5t17 -36.5t24 -56.5q-23 0 -30 -13t-17 -13t-10 8l4 10q0 10 -10 10t-10 -12zM1694 985h-1403v-12h1403v12zM1694 901h-301v-127h73v57h23v-133h-29v-67h166v67h-29v133h23v-57h74v127z
M1327 901h-166v-70h23l-31 -47l-31 47h21v70h-127v-70h24l76 -94v-39h-29v-67h166v67h-30v41l75 92h29v70zM938 698h-29v133h29v70h-197q-45 0 -70.5 -23.5t-25.5 -58.5t25.5 -58.5t70.5 -23.5h62v-39h-31v-67h166v67zM580 698h-29v133h29v70h-289v-127h84v57h67v-40h-49
v-50h49v-43h-67v58h-84v-125h289v67zM1694 567h-1403v-12h1403v12zM1436 348q54 0 55 48q0 28 -23.5 51.5t-45.5 23.5q-54 0 -54 -45q0 -33 23 -55.5t45 -22.5zM369 434q0 22 18 21q10 0 25 -15l4 4q-16 27 -37 27q-31 0 -29 -47q-14 47 -43 47q-24 0 -24 -25l6 -2
q0 12 18 12q31 1 47 -67q5 -18 -1.5 -25.5t-10.5 -5.5l2 -8h57l-2 8q-16 -8 -20 19q-10 35 -10 57zM1608 385q0 21 16 23h8l6 -35q2 -9 -4 -13t-10 -4l2 -6h60l-3 6q-16 0 -20 17l-14 71q-2 10 4 14t10 3l-2 6h-92v-35h8q-2 6 2 12q4 14 25 15h8q10 0 12 -13l6 -32h-8
q-16 0 -25 18h-6l11 -47h6zM1224 358q-34 0 -44 45l-9 39q-1 14 5 18t10 1v6h-49l2 -6q19 0 22 -19l8 -39q14 -55 58 -55q35 0 39 16.5t0 32.5l-11 45q-7 13 2 17t15 2l-2 6h-60l2 -6q18 0 21 -19l10 -43q4 -20 2 -30.5t-21 -10.5zM1069 356q-2 0 -9 3t-9 18l-15 65
q-3 19 17 19l-2 6h-29l-59 -86l-11 61q-3 19 15 19l-2 6h-43l2 -6q12 0 18 -19l16 -92l7 -2l61 90l12 -61q3 -21 -12 -21l2 -6h43zM762 467q-18 0 -34.5 -11.5t-16.5 -39.5t22.5 -47t48.5 -19h66l-2 8q-16 -8 -21 19l-16 63q-6 18 16 21l-2 6h-61zM508 436q0 -25 39 -30
l-19 -33q-8 -17 -28 -17l2 -6h39l24 47q2 6 10 6l7 -30q2 -9 -4 -13t-11 -4l2 -6h60l-2 6q-17 0 -21 17l-14 71q-2 10 4 14t10 3l-2 6h-55q-41 0 -41 -31zM1694 272h-1403v-12h1403v12zM1333 162q10 0 13 -12v-58h6l51 58v-41q0 -3 -4 -7t-6 -4v-4h28v4q-12 0 -12 11v41
q0 6 12 12v4h-20l-49 -53v37q0 12 12 12v4h-31v-4zM1251 117q0 12 13 12h8v-23q0 -6 -8 -6h-9q-8 0 -14 6t-6 13l-4 -2l4 -23h61v4q-4 -2 -7 -1t-3 12v43q0 6 4 10h6v4h-59l-4 -21l4 -2q0 5 4 11t14 6h9q8 0 8 -6v-21h-8q-13 0 -13 10h-4v-26h4zM1139 133q8 17 20 29v4h-53
l2 -4q2 0 14 -12l6 -11l-14 -26l-16 37q-4 6 -1 9t5 3v4h-27v-4q6 0 12 -12l27 -56h2q2 -2 2 0l17 33l18 -33h2l25 56q2 4 5 6t5 4t4 2v4h-31v-4q7 0 4 -10l-18 -39zM963 98q-11 0 -11 13v16l17 25q2 4 5 5t5 3t4 2v4h-31v-4q9 0 2 -10l-12 -19l-12 19q-4 4 -1 7t7 3v4h-31
v-4q5 0 17 -10l16 -25v-16q0 -5 -4 -9t-6 -4v-4h35v4zM870 141.5q0 26.5 -41 26.5t-41 -26.5t10.5 -38t31 -11.5t30.5 11.5t10 38zM735 150q0 12 10 12v4h-36q-27 0 -27 -19q0 -10 18 -18l-14 -20q-4 -4 -7 -5.5t-5 -3.5l-4 -2v-4h22l15 25q6 8 14 8v-18q0 -4 -2 -5.5
t-4 -3.5t-4 -2v-4h34v4q-10 0 -10 11v41zM608 111q0 -13 -12 -13v-4h37v4q-12 0 -12 13v41q0 10 12 10v4h-37v-4q2 0 6 -2q6 -6 6 -8v-19q-4 0 -8 4l-16 17q-6 2 -3 5t5 3v4h-29v-4q6 0 9 -3t7 -5l21 -19l-27 -26q-3 -3 -7 -6t-7 -5v-4h35v4q-10 0 -4 11l16 16q4 4 8 4v-18z
M1219 -182q22 0 22 14t-22 12v-26zM1075 -167q0 15 -22 11v-24q22 -2 22 13zM784 -182q23 0 23 14t-23 12v-26zM1145 -164l-10 -24h20zM1615.5 -205.5q22.5 0.5 22.5 26.5t-22.5 25.5t-22.5 -26.5t22.5 -25.5zM880.5 -205.5q22.5 0.5 22.5 26.5t-22.5 25.5t-22.5 -26.5
t22.5 -25.5zM350 1122q-16 0 -23.5 10.5t-7.5 20.5q0 18 16.5 18t18.5 -10l6 -39h-10zM1137 1129q0 5 9 5t13 -1q-6 -8 -14 -8.5t-8 4.5zM535 1129q0 5 9 5t13 -1q-6 -8 -14 -8.5t-8 4.5zM1401 1099q-1 -30 -21 -30t-36.5 23.5t-16.5 53.5q1 30 21 30t36.5 -23.5t16.5 -53.5
zM780 786q-27 0 -26.5 22.5t26.5 22.5h23v-45h-23zM563 410q-16 0 -23.5 10t-7.5 20q0 18 16.5 18.5t18.5 -9.5l6 -39h-10zM1466 386q0 -30 -20 -30t-36.5 23.5t-16.5 53.5t20 30t36.5 -23.5t16.5 -53.5zM786 358q-23 0 -38 20.5t-15 50.5t29 30h12q6 -2 7 -3t5 -12l19 -71
q0 -14 -8 -15h-11zM1132 162q9 0 1 -19q-10 19 -1 19zM721 131h-6q-16 0 -17 16q0 13 12 13t11 -8v-21zM829.5 164q24.5 0 24.5 -34t-24 -34t-25 34q0 34 24.5 34z" />
  </font>
</defs>
</svg>
